<svg xmlns="http://www.w3.org/2000/svg" xmlns:xlink="http://www.w3.org/1999/xlink" width="800" zoomAndPan="magnify" viewBox="0 0 600 599.999999" height="800" preserveAspectRatio="xMidYMid meet" version="1.0"><defs><filter x="0%" y="0%" width="100%" height="100%" id="cc850e580f"><feColorMatrix values="0 0 0 0 1 0 0 0 0 1 0 0 0 0 1 0 0 0 1 0" color-interpolation-filters="sRGB"/></filter><g/><clipPath id="cab65544ae"><path d="M 42.1875 0 L 557.8125 0 L 557.8125 600 L 42.1875 600 Z M 42.1875 0 " clip-rule="nonzero"/></clipPath><clipPath id="cc833bea8e"><path d="M 300 0 L 557.8125 150 L 557.8125 450 L 300 600 L 42.1875 450 L 42.1875 150 Z M 300 0 " clip-rule="nonzero"/></clipPath><clipPath id="9a5c858977"><path d="M 0.1875 0 L 515.8125 0 L 515.8125 600 L 0.1875 600 Z M 0.1875 0 " clip-rule="nonzero"/></clipPath><clipPath id="cbf586e8fe"><path d="M 258 0 L 515.8125 150 L 515.8125 450 L 258 600 L 0.1875 450 L 0.1875 150 Z M 258 0 " clip-rule="nonzero"/></clipPath><clipPath id="e5f4af6112"><rect x="0" width="516" y="0" height="600"/></clipPath><radialGradient gradientTransform="matrix(1.333333, 0, 0, 1.333333, -0.0000294667, 0.00000234375)" gradientUnits="userSpaceOnUse" r="791.118768" cx="0" id="b6547f9366" cy="0" fx="0" fy="0"><stop stop-opacity="1" stop-color="rgb(63.053894%, 84.698486%, 51.904297%)" offset="0"/><stop stop-opacity="1" stop-color="rgb(62.927246%, 84.681702%, 52.122498%)" offset="0.0078125"/><stop stop-opacity="1" stop-color="rgb(62.843323%, 84.671021%, 52.267456%)" offset="0.0117188"/><stop stop-opacity="1" stop-color="rgb(62.759399%, 84.660339%, 52.41394%)" offset="0.015625"/><stop stop-opacity="1" stop-color="rgb(62.675476%, 84.649658%, 52.558899%)" offset="0.0195312"/><stop stop-opacity="1" stop-color="rgb(62.591553%, 84.638977%, 52.705383%)" offset="0.0234375"/><stop stop-opacity="1" stop-color="rgb(62.506104%, 84.628296%, 52.850342%)" offset="0.0273438"/><stop stop-opacity="1" stop-color="rgb(62.42218%, 84.617615%, 52.9953%)" offset="0.03125"/><stop stop-opacity="1" stop-color="rgb(62.338257%, 84.606934%, 53.141785%)" offset="0.0351562"/><stop stop-opacity="1" stop-color="rgb(62.254333%, 84.596252%, 53.286743%)" offset="0.0390625"/><stop stop-opacity="1" stop-color="rgb(62.17041%, 84.585571%, 53.433228%)" offset="0.0429688"/><stop stop-opacity="1" stop-color="rgb(62.084961%, 84.57489%, 53.578186%)" offset="0.046875"/><stop stop-opacity="1" stop-color="rgb(62.001038%, 84.564209%, 53.723145%)" offset="0.0507812"/><stop stop-opacity="1" stop-color="rgb(61.917114%, 84.552002%, 53.869629%)" offset="0.0546875"/><stop stop-opacity="1" stop-color="rgb(61.833191%, 84.541321%, 54.014587%)" offset="0.0585938"/><stop stop-opacity="1" stop-color="rgb(61.747742%, 84.53064%, 54.159546%)" offset="0.0625"/><stop stop-opacity="1" stop-color="rgb(61.663818%, 84.519958%, 54.30603%)" offset="0.0664062"/><stop stop-opacity="1" stop-color="rgb(61.579895%, 84.509277%, 54.450989%)" offset="0.0703125"/><stop stop-opacity="1" stop-color="rgb(61.495972%, 84.498596%, 54.597473%)" offset="0.0742188"/><stop stop-opacity="1" stop-color="rgb(61.412048%, 84.487915%, 54.742432%)" offset="0.078125"/><stop stop-opacity="1" stop-color="rgb(61.326599%, 84.477234%, 54.88739%)" offset="0.0820312"/><stop stop-opacity="1" stop-color="rgb(61.242676%, 84.466553%, 55.033875%)" offset="0.0859375"/><stop stop-opacity="1" stop-color="rgb(61.158752%, 84.455872%, 55.178833%)" offset="0.0898438"/><stop stop-opacity="1" stop-color="rgb(61.074829%, 84.44519%, 55.325317%)" offset="0.09375"/><stop stop-opacity="1" stop-color="rgb(60.98938%, 84.434509%, 55.470276%)" offset="0.0976562"/><stop stop-opacity="1" stop-color="rgb(60.905457%, 84.423828%, 55.615234%)" offset="0.101562"/><stop stop-opacity="1" stop-color="rgb(60.821533%, 84.413147%, 55.761719%)" offset="0.105469"/><stop stop-opacity="1" stop-color="rgb(60.73761%, 84.402466%, 55.906677%)" offset="0.109375"/><stop stop-opacity="1" stop-color="rgb(60.653687%, 84.391785%, 56.053162%)" offset="0.113281"/><stop stop-opacity="1" stop-color="rgb(60.568237%, 84.381104%, 56.19812%)" offset="0.117188"/><stop stop-opacity="1" stop-color="rgb(60.484314%, 84.370422%, 56.343079%)" offset="0.121094"/><stop stop-opacity="1" stop-color="rgb(60.400391%, 84.359741%, 56.489563%)" offset="0.125"/><stop stop-opacity="1" stop-color="rgb(60.316467%, 84.34906%, 56.634521%)" offset="0.128906"/><stop stop-opacity="1" stop-color="rgb(60.231018%, 84.338379%, 56.77948%)" offset="0.132812"/><stop stop-opacity="1" stop-color="rgb(60.147095%, 84.327698%, 56.925964%)" offset="0.136719"/><stop stop-opacity="1" stop-color="rgb(60.063171%, 84.317017%, 57.070923%)" offset="0.140625"/><stop stop-opacity="1" stop-color="rgb(59.979248%, 84.306335%, 57.217407%)" offset="0.144531"/><stop stop-opacity="1" stop-color="rgb(59.895325%, 84.295654%, 57.362366%)" offset="0.148438"/><stop stop-opacity="1" stop-color="rgb(59.809875%, 84.283447%, 57.507324%)" offset="0.152344"/><stop stop-opacity="1" stop-color="rgb(59.725952%, 84.272766%, 57.653809%)" offset="0.15625"/><stop stop-opacity="1" stop-color="rgb(59.642029%, 84.262085%, 57.798767%)" offset="0.160156"/><stop stop-opacity="1" stop-color="rgb(59.558105%, 84.251404%, 57.945251%)" offset="0.164062"/><stop stop-opacity="1" stop-color="rgb(59.474182%, 84.240723%, 58.09021%)" offset="0.167969"/><stop stop-opacity="1" stop-color="rgb(59.388733%, 84.230042%, 58.235168%)" offset="0.171875"/><stop stop-opacity="1" stop-color="rgb(59.30481%, 84.21936%, 58.381653%)" offset="0.175781"/><stop stop-opacity="1" stop-color="rgb(59.220886%, 84.208679%, 58.526611%)" offset="0.179688"/><stop stop-opacity="1" stop-color="rgb(59.136963%, 84.197998%, 58.67157%)" offset="0.183594"/><stop stop-opacity="1" stop-color="rgb(59.051514%, 84.187317%, 58.818054%)" offset="0.1875"/><stop stop-opacity="1" stop-color="rgb(58.96759%, 84.176636%, 58.963013%)" offset="0.191406"/><stop stop-opacity="1" stop-color="rgb(58.883667%, 84.165955%, 59.109497%)" offset="0.195312"/><stop stop-opacity="1" stop-color="rgb(58.799744%, 84.155273%, 59.254456%)" offset="0.199219"/><stop stop-opacity="1" stop-color="rgb(58.71582%, 84.144592%, 59.399414%)" offset="0.203125"/><stop stop-opacity="1" stop-color="rgb(58.630371%, 84.133911%, 59.545898%)" offset="0.207031"/><stop stop-opacity="1" stop-color="rgb(58.546448%, 84.12323%, 59.690857%)" offset="0.210938"/><stop stop-opacity="1" stop-color="rgb(58.462524%, 84.112549%, 59.837341%)" offset="0.214844"/><stop stop-opacity="1" stop-color="rgb(58.378601%, 84.101868%, 59.9823%)" offset="0.21875"/><stop stop-opacity="1" stop-color="rgb(58.293152%, 84.091187%, 60.127258%)" offset="0.222656"/><stop stop-opacity="1" stop-color="rgb(58.209229%, 84.080505%, 60.273743%)" offset="0.226562"/><stop stop-opacity="1" stop-color="rgb(58.125305%, 84.069824%, 60.418701%)" offset="0.230469"/><stop stop-opacity="1" stop-color="rgb(58.041382%, 84.059143%, 60.56366%)" offset="0.234375"/><stop stop-opacity="1" stop-color="rgb(57.957458%, 84.048462%, 60.710144%)" offset="0.238281"/><stop stop-opacity="1" stop-color="rgb(57.872009%, 84.037781%, 60.855103%)" offset="0.242188"/><stop stop-opacity="1" stop-color="rgb(57.788086%, 84.0271%, 61.001587%)" offset="0.246094"/><stop stop-opacity="1" stop-color="rgb(57.704163%, 84.014893%, 61.146545%)" offset="0.25"/><stop stop-opacity="1" stop-color="rgb(57.577515%, 83.999634%, 61.364746%)" offset="0.253906"/><stop stop-opacity="1" stop-color="rgb(57.409668%, 83.978271%, 61.656189%)" offset="0.261719"/><stop stop-opacity="1" stop-color="rgb(57.240295%, 83.956909%, 61.947632%)" offset="0.269531"/><stop stop-opacity="1" stop-color="rgb(57.072449%, 83.935547%, 62.237549%)" offset="0.277344"/><stop stop-opacity="1" stop-color="rgb(56.903076%, 83.914185%, 62.528992%)" offset="0.285156"/><stop stop-opacity="1" stop-color="rgb(56.735229%, 83.892822%, 62.820435%)" offset="0.292969"/><stop stop-opacity="1" stop-color="rgb(56.567383%, 83.87146%, 63.111877%)" offset="0.300781"/><stop stop-opacity="1" stop-color="rgb(56.39801%, 83.850098%, 63.401794%)" offset="0.308594"/><stop stop-opacity="1" stop-color="rgb(56.230164%, 83.828735%, 63.693237%)" offset="0.316406"/><stop stop-opacity="1" stop-color="rgb(56.060791%, 83.807373%, 63.98468%)" offset="0.324219"/><stop stop-opacity="1" stop-color="rgb(55.892944%, 83.786011%, 64.276123%)" offset="0.332031"/><stop stop-opacity="1" stop-color="rgb(55.723572%, 83.763123%, 64.56604%)" offset="0.339844"/><stop stop-opacity="1" stop-color="rgb(55.555725%, 83.74176%, 64.857483%)" offset="0.347656"/><stop stop-opacity="1" stop-color="rgb(55.387878%, 83.720398%, 65.148926%)" offset="0.355469"/><stop stop-opacity="1" stop-color="rgb(55.218506%, 83.699036%, 65.440369%)" offset="0.363281"/><stop stop-opacity="1" stop-color="rgb(55.050659%, 83.677673%, 65.731812%)" offset="0.371094"/><stop stop-opacity="1" stop-color="rgb(54.881287%, 83.656311%, 66.021729%)" offset="0.378906"/><stop stop-opacity="1" stop-color="rgb(54.71344%, 83.634949%, 66.313171%)" offset="0.386719"/><stop stop-opacity="1" stop-color="rgb(54.544067%, 83.613586%, 66.604614%)" offset="0.394531"/><stop stop-opacity="1" stop-color="rgb(54.376221%, 83.592224%, 66.896057%)" offset="0.402344"/><stop stop-opacity="1" stop-color="rgb(54.206848%, 83.570862%, 67.185974%)" offset="0.410156"/><stop stop-opacity="1" stop-color="rgb(54.039001%, 83.5495%, 67.477417%)" offset="0.417969"/><stop stop-opacity="1" stop-color="rgb(53.871155%, 83.528137%, 67.76886%)" offset="0.425781"/><stop stop-opacity="1" stop-color="rgb(53.701782%, 83.506775%, 68.060303%)" offset="0.433594"/><stop stop-opacity="1" stop-color="rgb(53.533936%, 83.483887%, 68.351746%)" offset="0.441406"/><stop stop-opacity="1" stop-color="rgb(53.364563%, 83.462524%, 68.641663%)" offset="0.449219"/><stop stop-opacity="1" stop-color="rgb(53.196716%, 83.441162%, 68.933105%)" offset="0.457031"/><stop stop-opacity="1" stop-color="rgb(53.027344%, 83.4198%, 69.224548%)" offset="0.464844"/><stop stop-opacity="1" stop-color="rgb(52.859497%, 83.398438%, 69.515991%)" offset="0.472656"/><stop stop-opacity="1" stop-color="rgb(52.69165%, 83.377075%, 69.805908%)" offset="0.480469"/><stop stop-opacity="1" stop-color="rgb(52.522278%, 83.355713%, 70.097351%)" offset="0.488281"/><stop stop-opacity="1" stop-color="rgb(52.354431%, 83.334351%, 70.388794%)" offset="0.496094"/><stop stop-opacity="1" stop-color="rgb(52.227783%, 83.317566%, 70.606995%)" offset="0.503906"/><stop stop-opacity="1" stop-color="rgb(52.142334%, 83.306885%, 70.751953%)" offset="0.507812"/><stop stop-opacity="1" stop-color="rgb(52.058411%, 83.296204%, 70.898438%)" offset="0.511719"/><stop stop-opacity="1" stop-color="rgb(51.974487%, 83.285522%, 71.043396%)" offset="0.515625"/><stop stop-opacity="1" stop-color="rgb(51.890564%, 83.274841%, 71.18988%)" offset="0.519531"/><stop stop-opacity="1" stop-color="rgb(51.806641%, 83.26416%, 71.334839%)" offset="0.523438"/><stop stop-opacity="1" stop-color="rgb(51.721191%, 83.253479%, 71.479797%)" offset="0.527344"/><stop stop-opacity="1" stop-color="rgb(51.637268%, 83.242798%, 71.626282%)" offset="0.53125"/><stop stop-opacity="1" stop-color="rgb(51.553345%, 83.232117%, 71.77124%)" offset="0.535156"/><stop stop-opacity="1" stop-color="rgb(51.469421%, 83.221436%, 71.917725%)" offset="0.539062"/><stop stop-opacity="1" stop-color="rgb(51.383972%, 83.209229%, 72.062683%)" offset="0.542969"/><stop stop-opacity="1" stop-color="rgb(51.300049%, 83.198547%, 72.207642%)" offset="0.546875"/><stop stop-opacity="1" stop-color="rgb(51.216125%, 83.187866%, 72.354126%)" offset="0.550781"/><stop stop-opacity="1" stop-color="rgb(51.132202%, 83.177185%, 72.499084%)" offset="0.554688"/><stop stop-opacity="1" stop-color="rgb(51.048279%, 83.166504%, 72.644043%)" offset="0.558594"/><stop stop-opacity="1" stop-color="rgb(50.96283%, 83.155823%, 72.790527%)" offset="0.5625"/><stop stop-opacity="1" stop-color="rgb(50.878906%, 83.145142%, 72.935486%)" offset="0.566406"/><stop stop-opacity="1" stop-color="rgb(50.794983%, 83.13446%, 73.08197%)" offset="0.570312"/><stop stop-opacity="1" stop-color="rgb(50.71106%, 83.123779%, 73.226929%)" offset="0.574219"/><stop stop-opacity="1" stop-color="rgb(50.62561%, 83.113098%, 73.371887%)" offset="0.578125"/><stop stop-opacity="1" stop-color="rgb(50.541687%, 83.102417%, 73.518372%)" offset="0.582031"/><stop stop-opacity="1" stop-color="rgb(50.457764%, 83.091736%, 73.66333%)" offset="0.585938"/><stop stop-opacity="1" stop-color="rgb(50.37384%, 83.081055%, 73.809814%)" offset="0.589844"/><stop stop-opacity="1" stop-color="rgb(50.289917%, 83.070374%, 73.954773%)" offset="0.59375"/><stop stop-opacity="1" stop-color="rgb(50.204468%, 83.059692%, 74.099731%)" offset="0.597656"/><stop stop-opacity="1" stop-color="rgb(50.120544%, 83.049011%, 74.246216%)" offset="0.601562"/><stop stop-opacity="1" stop-color="rgb(50.036621%, 83.03833%, 74.391174%)" offset="0.605469"/><stop stop-opacity="1" stop-color="rgb(49.952698%, 83.027649%, 74.536133%)" offset="0.609375"/><stop stop-opacity="1" stop-color="rgb(49.868774%, 83.016968%, 74.682617%)" offset="0.613281"/><stop stop-opacity="1" stop-color="rgb(49.783325%, 83.006287%, 74.827576%)" offset="0.617188"/><stop stop-opacity="1" stop-color="rgb(49.699402%, 82.995605%, 74.97406%)" offset="0.621094"/><stop stop-opacity="1" stop-color="rgb(49.615479%, 82.984924%, 75.119019%)" offset="0.625"/><stop stop-opacity="1" stop-color="rgb(49.488831%, 82.969666%, 75.337219%)" offset="0.628906"/><stop stop-opacity="1" stop-color="rgb(49.320984%, 82.946777%, 75.628662%)" offset="0.636719"/><stop stop-opacity="1" stop-color="rgb(49.151611%, 82.925415%, 75.920105%)" offset="0.644531"/><stop stop-opacity="1" stop-color="rgb(48.983765%, 82.904053%, 76.210022%)" offset="0.652344"/><stop stop-opacity="1" stop-color="rgb(48.814392%, 82.88269%, 76.501465%)" offset="0.660156"/><stop stop-opacity="1" stop-color="rgb(48.646545%, 82.861328%, 76.792908%)" offset="0.667969"/><stop stop-opacity="1" stop-color="rgb(48.478699%, 82.839966%, 77.084351%)" offset="0.675781"/><stop stop-opacity="1" stop-color="rgb(48.309326%, 82.818604%, 77.374268%)" offset="0.683594"/><stop stop-opacity="1" stop-color="rgb(48.141479%, 82.797241%, 77.66571%)" offset="0.691406"/><stop stop-opacity="1" stop-color="rgb(47.972107%, 82.775879%, 77.957153%)" offset="0.699219"/><stop stop-opacity="1" stop-color="rgb(47.80426%, 82.754517%, 78.248596%)" offset="0.707031"/><stop stop-opacity="1" stop-color="rgb(47.634888%, 82.733154%, 78.538513%)" offset="0.714844"/><stop stop-opacity="1" stop-color="rgb(47.467041%, 82.711792%, 78.829956%)" offset="0.722656"/><stop stop-opacity="1" stop-color="rgb(47.299194%, 82.688904%, 79.121399%)" offset="0.730469"/><stop stop-opacity="1" stop-color="rgb(47.129822%, 82.667542%, 79.412842%)" offset="0.738281"/><stop stop-opacity="1" stop-color="rgb(46.961975%, 82.646179%, 79.704285%)" offset="0.746094"/><stop stop-opacity="1" stop-color="rgb(46.835327%, 82.629395%, 79.922485%)" offset="0.753906"/><stop stop-opacity="1" stop-color="rgb(46.749878%, 82.618713%, 80.067444%)" offset="0.757812"/><stop stop-opacity="1" stop-color="rgb(46.665955%, 82.608032%, 80.213928%)" offset="0.761719"/><stop stop-opacity="1" stop-color="rgb(46.582031%, 82.597351%, 80.358887%)" offset="0.765625"/><stop stop-opacity="1" stop-color="rgb(46.498108%, 82.58667%, 80.503845%)" offset="0.769531"/><stop stop-opacity="1" stop-color="rgb(46.414185%, 82.575989%, 80.65033%)" offset="0.773438"/><stop stop-opacity="1" stop-color="rgb(46.328735%, 82.565308%, 80.795288%)" offset="0.777344"/><stop stop-opacity="1" stop-color="rgb(46.244812%, 82.554626%, 80.940247%)" offset="0.78125"/><stop stop-opacity="1" stop-color="rgb(46.160889%, 82.543945%, 81.086731%)" offset="0.785156"/><stop stop-opacity="1" stop-color="rgb(46.076965%, 82.533264%, 81.231689%)" offset="0.789062"/><stop stop-opacity="1" stop-color="rgb(45.991516%, 82.522583%, 81.378174%)" offset="0.792969"/><stop stop-opacity="1" stop-color="rgb(45.907593%, 82.511902%, 81.523132%)" offset="0.796875"/><stop stop-opacity="1" stop-color="rgb(45.823669%, 82.501221%, 81.668091%)" offset="0.800781"/><stop stop-opacity="1" stop-color="rgb(45.739746%, 82.49054%, 81.814575%)" offset="0.804688"/><stop stop-opacity="1" stop-color="rgb(45.655823%, 82.479858%, 81.959534%)" offset="0.808594"/><stop stop-opacity="1" stop-color="rgb(45.570374%, 82.469177%, 82.106018%)" offset="0.8125"/><stop stop-opacity="1" stop-color="rgb(45.445251%, 82.453918%, 82.324219%)" offset="0.816406"/><stop stop-opacity="1" stop-color="rgb(45.275879%, 82.432556%, 82.614136%)" offset="0.824219"/><stop stop-opacity="1" stop-color="rgb(45.108032%, 82.409668%, 82.905579%)" offset="0.832031"/><stop stop-opacity="1" stop-color="rgb(44.93866%, 82.388306%, 83.197021%)" offset="0.839844"/><stop stop-opacity="1" stop-color="rgb(44.770813%, 82.366943%, 83.488464%)" offset="0.847656"/><stop stop-opacity="1" stop-color="rgb(44.60144%, 82.345581%, 83.778381%)" offset="0.855469"/><stop stop-opacity="1" stop-color="rgb(44.433594%, 82.324219%, 84.069824%)" offset="0.863281"/><stop stop-opacity="1" stop-color="rgb(44.265747%, 82.302856%, 84.361267%)" offset="0.871094"/><stop stop-opacity="1" stop-color="rgb(44.139099%, 82.286072%, 84.579468%)" offset="0.878906"/><stop stop-opacity="1" stop-color="rgb(44.05365%, 82.275391%, 84.724426%)" offset="0.882812"/><stop stop-opacity="1" stop-color="rgb(43.969727%, 82.264709%, 84.870911%)" offset="0.886719"/><stop stop-opacity="1" stop-color="rgb(43.885803%, 82.254028%, 85.015869%)" offset="0.890625"/><stop stop-opacity="1" stop-color="rgb(43.80188%, 82.243347%, 85.162354%)" offset="0.894531"/><stop stop-opacity="1" stop-color="rgb(43.717957%, 82.232666%, 85.307312%)" offset="0.898438"/><stop stop-opacity="1" stop-color="rgb(43.632507%, 82.221985%, 85.452271%)" offset="0.902344"/><stop stop-opacity="1" stop-color="rgb(43.548584%, 82.211304%, 85.598755%)" offset="0.90625"/><stop stop-opacity="1" stop-color="rgb(43.421936%, 82.196045%, 85.816956%)" offset="0.910156"/><stop stop-opacity="1" stop-color="rgb(43.254089%, 82.174683%, 86.108398%)" offset="0.917969"/><stop stop-opacity="1" stop-color="rgb(43.086243%, 82.151794%, 86.398315%)" offset="0.925781"/><stop stop-opacity="1" stop-color="rgb(42.91687%, 82.130432%, 86.689758%)" offset="0.933594"/><stop stop-opacity="1" stop-color="rgb(42.790222%, 82.113647%, 86.907959%)" offset="0.941406"/><stop stop-opacity="1" stop-color="rgb(42.706299%, 82.102966%, 87.054443%)" offset="0.945312"/><stop stop-opacity="1" stop-color="rgb(42.622375%, 82.092285%, 87.199402%)" offset="0.949219"/><stop stop-opacity="1" stop-color="rgb(42.536926%, 82.081604%, 87.34436%)" offset="0.953125"/><stop stop-opacity="1" stop-color="rgb(42.411804%, 82.066345%, 87.562561%)" offset="0.957031"/><stop stop-opacity="1" stop-color="rgb(42.242432%, 82.044983%, 87.854004%)" offset="0.964844"/><stop stop-opacity="1" stop-color="rgb(42.115784%, 82.028198%, 88.072205%)" offset="0.972656"/><stop stop-opacity="1" stop-color="rgb(42.03186%, 82.017517%, 88.218689%)" offset="0.976562"/><stop stop-opacity="1" stop-color="rgb(41.905212%, 82.002258%, 88.43689%)" offset="0.980469"/><stop stop-opacity="1" stop-color="rgb(41.778564%, 81.985474%, 88.65509%)" offset="0.988281"/><stop stop-opacity="1" stop-color="rgb(41.653442%, 81.970215%, 88.873291%)" offset="0.992188"/><stop stop-opacity="1" stop-color="rgb(41.569519%, 81.959534%, 89.019775%)" offset="1"/></radialGradient><mask id="7d88b5e2ff"><g filter="url(#cc850e580f)"><rect x="-60" width="720" fill="#000000" y="-60" height="719.999999" fill-opacity="0.44"/></g></mask><clipPath id="c06ce3437e"><path d="M 1 0.972656 L 442.75 0.972656 L 442.75 442.722656 L 1 442.722656 Z M 1 0.972656 " clip-rule="nonzero"/></clipPath><clipPath id="64f7c70d62"><path d="M 0.304688 186 L 12 186 L 12 206 L 0.304688 206 Z M 0.304688 186 " clip-rule="nonzero"/></clipPath><clipPath id="3fcd1102f1"><path d="M 433 89 L 441.75 89 L 441.75 94 L 433 94 Z M 433 89 " clip-rule="nonzero"/></clipPath><clipPath id="aa4f8efe7d"><path d="M 398 117 L 441.75 117 L 441.75 135 L 398 135 Z M 398 117 " clip-rule="nonzero"/></clipPath><clipPath id="4652f1dcb5"><path d="M 0.304688 243 L 17 243 L 17 254 L 0.304688 254 Z M 0.304688 243 " clip-rule="nonzero"/></clipPath><clipPath id="7bfa4ac95a"><rect x="0" width="442" y="0" height="443"/></clipPath><clipPath id="3e707c6468"><rect x="0" width="444" y="0" height="444"/></clipPath></defs><g clip-path="url(#cab65544ae)"><g clip-path="url(#cc833bea8e)"><g transform="matrix(1, 0, 0, 1, 42, -0.000000000000034788)"><g clip-path="url(#e5f4af6112)"><g clip-path="url(#9a5c858977)"><g clip-path="url(#cbf586e8fe)"><path fill="#236192" d="M 0.1875 600 L 0.1875 -0.21875 L 515.8125 -0.21875 L 515.8125 600 Z M 0.1875 600 " fill-opacity="1" fill-rule="nonzero"/></g></g></g></g><path stroke-linecap="butt" transform="matrix(0, -0.75, 0.75, 0, 42.187499, 599.999994)" fill="none" stroke-linejoin="miter" d="M 800.000027 343.750017 L 600.000018 687.500031 L 200.000001 687.500031 L -0.00000746667 343.750017 L 200.000001 0.000002 L 600.000018 0.000002 Z M 800.000027 343.750017 " stroke="url(#b6547f9366)" stroke-width="40" stroke-miterlimit="4"/></g></g><g mask="url(#7d88b5e2ff)"><g transform="matrix(1, 0, 0, 1, 59, 78)"><g clip-path="url(#3e707c6468)"><g clip-path="url(#c06ce3437e)"><g transform="matrix(1, 0, 0, 1, 1, -0.000000000000042633)"><g clip-path="url(#7bfa4ac95a)"><path fill="#9adaf3" d="M 411.5 270.511719 C 413.761719 270.511719 415.648438 268.625 415.648438 266.363281 C 415.648438 264.097656 413.761719 262.210938 411.5 262.210938 C 409.234375 262.210938 407.347656 264.097656 407.347656 266.363281 C 407.347656 268.625 409.234375 270.511719 411.5 270.511719 Z M 411.5 270.511719 " fill-opacity="1" fill-rule="evenodd"/><path fill="#9adaf3" d="M 310.773438 346.714844 C 313.039062 346.714844 314.925781 344.828125 314.925781 342.566406 C 314.925781 340.300781 313.039062 338.414062 310.773438 338.414062 C 308.132812 338.414062 306.246094 340.300781 306.246094 342.566406 C 306.246094 344.828125 308.132812 346.714844 310.773438 346.714844 Z M 310.773438 346.714844 " fill-opacity="1" fill-rule="evenodd"/><path fill="#9adaf3" d="M 304.738281 197.703125 C 307.003906 197.703125 308.886719 195.816406 308.886719 193.554688 C 308.886719 190.914062 307.003906 189.027344 304.738281 189.027344 C 302.476562 189.027344 300.589844 190.914062 300.589844 193.554688 C 300.589844 195.816406 302.476562 197.703125 304.738281 197.703125 Z M 304.738281 197.703125 " fill-opacity="1" fill-rule="evenodd"/><path fill="#9adaf3" d="M 241.363281 131.308594 C 243.625 131.308594 245.511719 129.421875 245.511719 127.160156 C 245.511719 124.894531 243.625 123.011719 241.363281 123.011719 C 239.097656 123.011719 237.210938 124.894531 237.210938 127.160156 C 237.210938 129.421875 239.097656 131.308594 241.363281 131.308594 Z M 241.363281 131.308594 " fill-opacity="1" fill-rule="evenodd"/><path fill="#9adaf3" d="M 418.664062 59.632812 C 421.304688 59.632812 422.816406 57.746094 422.816406 55.484375 C 422.816406 53.21875 421.304688 51.332031 418.664062 51.332031 C 416.402344 51.332031 414.515625 53.21875 414.515625 55.484375 C 414.515625 57.746094 416.402344 59.632812 418.664062 59.632812 Z M 418.664062 59.632812 " fill-opacity="1" fill-rule="evenodd"/><path fill="#9adaf3" d="M 310.773438 125.652344 C 313.039062 125.652344 314.925781 123.765625 314.925781 121.5 C 314.925781 119.238281 313.039062 117.351562 310.773438 117.351562 C 308.132812 117.351562 306.246094 119.238281 306.246094 121.5 C 306.246094 123.765625 308.132812 125.652344 310.773438 125.652344 Z M 310.773438 125.652344 " fill-opacity="1" fill-rule="evenodd"/><path fill="#9adaf3" d="M 157.992188 262.964844 C 160.253906 262.964844 162.140625 261.082031 162.140625 258.816406 C 162.140625 256.175781 160.253906 254.667969 157.992188 254.667969 C 155.726562 254.667969 153.84375 256.175781 153.84375 258.816406 C 153.84375 261.082031 155.726562 262.964844 157.992188 262.964844 Z M 157.992188 262.964844 " fill-opacity="1" fill-rule="evenodd"/><path fill="#9adaf3" d="M 61.039062 371.234375 C 63.304688 371.234375 65.191406 369.726562 65.191406 367.085938 C 65.191406 364.820312 63.304688 362.933594 61.039062 362.933594 C 58.777344 362.933594 56.890625 364.820312 56.890625 367.085938 C 56.890625 369.726562 58.777344 371.234375 61.039062 371.234375 Z M 61.039062 371.234375 " fill-opacity="1" fill-rule="evenodd"/><path fill="#9adaf3" d="M 383.960938 232.410156 C 386.222656 232.410156 388.109375 230.523438 388.109375 228.261719 C 388.109375 225.621094 386.222656 223.734375 383.960938 223.734375 C 381.695312 223.734375 379.808594 225.621094 379.808594 228.261719 C 379.808594 230.523438 381.695312 232.410156 383.960938 232.410156 Z M 383.960938 232.410156 " fill-opacity="1" fill-rule="evenodd"/><path fill="#9adaf3" d="M 419.042969 170.542969 C 421.304688 170.542969 423.191406 169.035156 423.191406 166.394531 C 423.191406 164.128906 421.304688 162.242188 419.042969 162.242188 C 416.78125 162.242188 414.894531 164.128906 414.894531 166.394531 C 414.894531 169.035156 416.78125 170.917969 419.042969 170.542969 Z M 419.042969 170.542969 " fill-opacity="1" fill-rule="evenodd"/><path fill="#9adaf3" d="M 362.457031 284.847656 C 363.964844 284.847656 365.472656 283.714844 365.472656 281.828125 C 365.472656 279.941406 363.964844 278.8125 362.457031 278.8125 C 360.570312 278.8125 359.0625 279.941406 359.0625 281.828125 C 359.0625 283.714844 360.570312 284.847656 362.457031 284.847656 Z M 362.457031 284.847656 " fill-opacity="1" fill-rule="evenodd"/><path fill="#9adaf3" d="M 277.578125 298.804688 C 279.085938 298.804688 280.59375 297.296875 280.59375 295.785156 C 280.59375 293.898438 279.085938 292.769531 277.578125 292.769531 C 275.691406 292.769531 274.183594 293.898438 274.183594 295.785156 C 274.183594 297.296875 275.691406 298.804688 277.578125 298.804688 Z M 277.578125 298.804688 " fill-opacity="1" fill-rule="evenodd"/><path fill="#9adaf3" d="M 133.09375 385.945312 C 134.980469 385.945312 136.113281 384.816406 136.113281 382.929688 C 136.113281 381.042969 134.980469 379.910156 133.09375 379.910156 C 131.585938 379.910156 130.074219 381.042969 130.074219 382.929688 C 130.074219 384.816406 131.585938 385.945312 133.09375 385.945312 Z M 133.09375 385.945312 " fill-opacity="1" fill-rule="evenodd"/><path fill="#9adaf3" d="M 21.808594 288.617188 C 23.695312 288.617188 24.824219 287.488281 24.824219 285.601562 C 24.824219 284.09375 23.695312 282.582031 21.808594 282.582031 C 20.296875 282.582031 18.789062 284.09375 18.789062 285.601562 C 18.789062 287.488281 20.296875 288.617188 21.808594 288.617188 Z M 21.808594 288.617188 " fill-opacity="1" fill-rule="evenodd"/><path fill="#9adaf3" d="M 198.734375 113.203125 C 200.621094 113.203125 201.75 111.691406 201.75 110.183594 C 201.75 108.296875 200.621094 106.789062 198.734375 106.789062 C 196.847656 106.789062 195.714844 108.296875 195.714844 110.183594 C 195.714844 111.691406 196.847656 113.203125 198.734375 113.203125 Z M 198.734375 113.203125 " fill-opacity="1" fill-rule="evenodd"/><path fill="#9adaf3" d="M 199.488281 392.359375 C 200.996094 392.359375 202.507812 390.851562 202.507812 389.34375 C 202.507812 387.457031 200.996094 385.945312 199.488281 385.945312 C 197.601562 385.945312 196.09375 387.457031 196.09375 389.34375 C 196.09375 390.851562 197.601562 392.359375 199.488281 392.359375 Z M 199.488281 392.359375 " fill-opacity="1" fill-rule="evenodd"/><path fill="#9adaf3" d="M 168.933594 345.960938 C 170.816406 345.960938 172.328125 344.449219 172.328125 342.566406 C 172.328125 341.054688 170.816406 339.546875 168.933594 339.546875 C 167.421875 339.546875 165.914062 341.054688 165.914062 342.566406 C 165.914062 344.449219 167.421875 345.960938 168.933594 345.960938 Z M 168.933594 345.960938 " fill-opacity="1" fill-rule="evenodd"/><path fill="#9adaf3" d="M 205.902344 168.277344 C 207.410156 168.277344 208.917969 166.769531 208.917969 164.882812 C 208.917969 163.375 207.410156 161.867188 205.902344 161.867188 C 204.015625 161.867188 202.507812 163.375 202.507812 164.882812 C 202.507812 166.769531 204.015625 168.277344 205.902344 168.277344 Z M 205.902344 168.277344 " fill-opacity="1" fill-rule="evenodd"/><path fill="#9adaf3" d="M 145.542969 162.996094 C 147.429688 162.996094 148.5625 161.488281 148.5625 159.980469 C 148.5625 158.09375 147.429688 156.960938 145.542969 156.960938 C 143.65625 156.960938 142.523438 158.09375 142.523438 159.980469 C 142.523438 161.488281 143.65625 162.996094 145.542969 162.996094 Z M 145.542969 162.996094 " fill-opacity="1" fill-rule="evenodd"/><path fill="#9adaf3" d="M 339.066406 64.539062 C 340.953125 64.539062 342.085938 63.027344 342.085938 61.519531 C 342.085938 59.632812 340.953125 58.125 339.066406 58.125 C 337.179688 58.125 336.050781 59.632812 336.050781 61.519531 C 336.050781 63.027344 337.179688 64.539062 339.066406 64.539062 Z M 339.066406 64.539062 " fill-opacity="1" fill-rule="evenodd"/><path fill="#9adaf3" d="M 379.054688 128.667969 C 380.941406 128.667969 382.074219 127.535156 382.074219 125.652344 C 382.074219 123.765625 380.941406 122.632812 379.054688 122.632812 C 377.167969 122.632812 376.039062 123.765625 376.039062 125.652344 C 376.039062 127.535156 377.167969 128.667969 379.054688 128.667969 Z M 379.054688 128.667969 " fill-opacity="1" fill-rule="evenodd"/><path fill="#9adaf3" d="M 96.125 199.589844 C 98.011719 199.589844 99.519531 198.082031 99.519531 196.570312 C 99.519531 194.6875 98.011719 193.554688 96.125 193.554688 C 94.613281 193.554688 93.105469 194.6875 93.105469 196.570312 C 93.105469 198.082031 94.613281 199.589844 96.125 199.589844 Z M 96.125 199.589844 " fill-opacity="1" fill-rule="evenodd"/><path fill="#9adaf3" d="M 197.601562 229.015625 C 199.488281 229.015625 200.996094 227.503906 200.996094 225.996094 C 200.996094 224.109375 199.488281 222.980469 197.601562 222.980469 C 196.09375 222.980469 194.585938 224.109375 194.585938 225.996094 C 194.585938 227.503906 196.09375 229.015625 197.601562 229.015625 Z M 197.601562 229.015625 " fill-opacity="1" fill-rule="evenodd"/><path fill="#9adaf3" d="M 38.40625 357.277344 C 55.003906 347.847656 89.710938 334.640625 116.117188 355.011719 C 118.757812 356.898438 126.679688 365.199219 126.679688 365.199219 C 124.039062 371.613281 116.871094 380.664062 96.878906 379.535156 C 81.410156 378.78125 59.15625 374.628906 38.40625 357.277344 Z M 38.40625 357.277344 " fill-opacity="1" fill-rule="evenodd"/><path fill="#9adaf3" d="M 25.203125 356.144531 C 24.824219 353.882812 23.316406 349.730469 22.9375 347.847656 C 22.183594 346.335938 21.429688 342.1875 24.070312 342.941406 C 31.992188 344.449219 38.40625 350.109375 42.933594 356.898438 L 42.933594 358.410156 C 37.273438 364.445312 29.730469 368.59375 21.808594 368.972656 C 18.789062 368.972656 20.675781 365.199219 21.429688 364.066406 C 22.5625 362.179688 24.449219 358.03125 25.203125 356.144531 Z M 25.203125 356.144531 " fill-opacity="1" fill-rule="evenodd"/><path fill="#9adaf3" d="M 96.878906 379.535156 C 89.332031 382.550781 73.867188 382.929688 69.71875 382.929688 C 66.699219 382.550781 75.753906 376.894531 77.640625 375.007812 C 80.28125 376.140625 96.878906 379.535156 96.878906 379.535156 Z M 96.878906 379.535156 " fill-opacity="1" fill-rule="evenodd"/><path fill="#9adaf3" d="M 73.867188 272.398438 C 86.316406 265.230469 111.589844 255.421875 131.585938 270.511719 C 133.472656 272.019531 139.128906 278.054688 139.128906 278.054688 C 137.242188 282.582031 131.960938 289.75 117.25 288.617188 C 105.554688 287.863281 88.957031 285.222656 73.867188 272.398438 Z M 73.867188 272.398438 " fill-opacity="1" fill-rule="evenodd"/><path fill="#9adaf3" d="M 64.058594 271.265625 C 64.058594 269.757812 62.925781 266.738281 62.171875 265.230469 C 61.796875 264.097656 61.039062 261.082031 63.304688 261.457031 C 68.960938 262.589844 73.867188 266.738281 77.261719 272.019531 L 77.261719 273.152344 C 72.734375 277.300781 67.453125 280.695312 61.417969 280.695312 C 59.53125 281.074219 60.664062 278.054688 61.417969 276.925781 C 62.171875 275.792969 63.679688 272.773438 64.058594 271.265625 Z M 64.058594 271.265625 " fill-opacity="1" fill-rule="evenodd"/><path fill="#9adaf3" d="M 117.25 288.617188 C 111.589844 290.882812 100.273438 291.257812 96.878906 291.257812 C 94.992188 290.882812 101.40625 286.734375 102.914062 285.222656 C 104.800781 286.355469 117.25 288.617188 117.25 288.617188 Z M 117.25 288.617188 " fill-opacity="1" fill-rule="evenodd"/><path fill="#9adaf3" d="M 160.253906 259.949219 C 168.933594 251.648438 187.792969 238.445312 207.410156 246.746094 C 208.917969 247.5 215.332031 251.273438 215.332031 251.273438 C 214.578125 255.421875 211.558594 262.589844 199.109375 264.851562 C 189.679688 266.363281 175.34375 267.492188 160.253906 259.949219 Z M 160.253906 259.949219 " fill-opacity="1" fill-rule="evenodd"/><path fill="#9adaf3" d="M 151.957031 261.082031 C 151.203125 259.949219 149.691406 257.683594 148.9375 256.554688 C 148.5625 255.800781 147.429688 253.15625 148.9375 253.15625 C 154.21875 253.15625 159.125 255.421875 162.894531 259.195312 L 162.894531 259.949219 C 160.253906 264.476562 156.484375 268.246094 151.578125 269.757812 C 150.070312 270.132812 150.445312 267.492188 150.824219 266.738281 C 150.824219 265.230469 151.578125 262.589844 151.957031 261.082031 Z M 151.957031 261.082031 " fill-opacity="1" fill-rule="evenodd"/><path fill="#9adaf3" d="M 199.109375 264.851562 C 194.960938 267.871094 185.53125 270.511719 182.890625 270.886719 C 181.378906 271.265625 185.90625 266.363281 186.660156 264.851562 C 188.546875 265.230469 199.109375 264.851562 199.109375 264.851562 Z M 199.109375 264.851562 " fill-opacity="1" fill-rule="evenodd"/><path fill="#9adaf3" d="M 128.191406 242.59375 C 135.734375 233.917969 151.957031 219.207031 170.816406 224.863281 C 172.703125 225.621094 178.738281 228.636719 178.738281 228.636719 C 178.738281 232.410156 176.476562 239.199219 165.160156 242.59375 C 156.484375 245.234375 143.277344 247.875 128.191406 242.59375 Z M 128.191406 242.59375 " fill-opacity="1" fill-rule="evenodd"/><path fill="#9adaf3" d="M 120.644531 244.480469 C 120.265625 243.351562 118.382812 241.085938 117.625 240.332031 C 117.25 239.578125 115.742188 237.691406 117.25 237.3125 C 122.152344 236.558594 126.679688 238.445312 130.832031 241.085938 L 130.832031 242.21875 C 128.945312 246.746094 125.925781 250.515625 121.398438 252.402344 C 119.890625 252.78125 119.890625 250.515625 120.265625 249.386719 C 120.265625 248.253906 120.644531 245.613281 120.644531 244.480469 Z M 120.644531 244.480469 " fill-opacity="1" fill-rule="evenodd"/><path fill="#9adaf3" d="M 165.160156 242.59375 C 161.386719 245.992188 153.085938 249.386719 150.824219 250.140625 C 149.316406 250.515625 153.085938 245.613281 153.464844 244.105469 C 155.351562 244.105469 165.160156 242.59375 165.160156 242.59375 Z M 165.160156 242.59375 " fill-opacity="1" fill-rule="evenodd"/><path fill="#9adaf3" d="M 130.453125 181.105469 C 137.621094 172.429688 153.84375 157.714844 173.082031 163.375 C 174.96875 164.128906 181.003906 167.148438 181.003906 167.148438 C 181.003906 170.917969 178.738281 177.710938 167.421875 181.105469 C 158.746094 183.746094 145.542969 186.386719 130.453125 181.105469 Z M 130.453125 181.105469 " fill-opacity="1" fill-rule="evenodd"/><path fill="#9adaf3" d="M 122.910156 182.992188 C 122.152344 181.859375 120.644531 179.972656 119.890625 178.839844 C 119.136719 178.085938 118.003906 176.199219 119.511719 175.824219 C 124.417969 175.070312 128.945312 176.957031 133.09375 179.597656 L 133.09375 180.726562 C 131.207031 185.253906 128.191406 189.027344 123.664062 190.914062 C 122.152344 191.667969 122.152344 189.027344 122.53125 188.273438 C 122.53125 186.761719 122.910156 184.121094 122.910156 182.992188 Z M 122.910156 182.992188 " fill-opacity="1" fill-rule="evenodd"/><path fill="#9adaf3" d="M 167.421875 181.105469 C 163.648438 184.5 155.351562 187.894531 153.085938 188.648438 C 151.203125 189.027344 154.972656 184.121094 155.726562 182.613281 C 157.238281 182.613281 167.421875 181.105469 167.421875 181.105469 Z M 167.421875 181.105469 " fill-opacity="1" fill-rule="evenodd"/><path fill="#9adaf3" d="M 208.164062 338.414062 C 216.839844 326.34375 236.835938 306.347656 262.109375 312.386719 C 264.75 312.761719 272.671875 316.15625 272.671875 316.15625 C 273.050781 321.4375 270.785156 330.492188 256.074219 335.773438 C 245.132812 339.921875 227.78125 344.074219 208.164062 338.414062 Z M 208.164062 338.414062 " fill-opacity="1" fill-rule="evenodd"/><path fill="#9adaf3" d="M 198.355469 341.433594 C 197.601562 339.921875 194.960938 337.660156 193.828125 336.152344 C 193.074219 335.398438 191.1875 332.757812 193.074219 332.378906 C 199.488281 331.246094 205.523438 333.132812 211.183594 336.527344 L 211.183594 336.90625 L 211.558594 337.660156 C 209.296875 343.695312 205.523438 348.976562 199.867188 351.617188 C 197.980469 352.75 197.980469 349.355469 197.980469 348.222656 C 197.980469 346.714844 198.355469 342.941406 198.355469 341.433594 Z M 198.355469 341.433594 " fill-opacity="1" fill-rule="evenodd"/><path fill="#9adaf3" d="M 256.074219 335.773438 C 251.546875 340.300781 240.984375 345.207031 237.96875 346.714844 C 235.703125 347.089844 240.230469 340.679688 240.984375 338.414062 C 243.25 338.414062 256.074219 335.773438 256.074219 335.773438 Z M 256.074219 335.773438 " fill-opacity="1" fill-rule="evenodd"/><path fill="#9adaf3" d="M 7.847656 196.949219 C 22.183594 189.027344 51.609375 177.332031 74.242188 194.6875 C 76.507812 196.570312 83.296875 203.738281 83.296875 203.738281 C 81.035156 209.019531 75 216.941406 58.023438 215.8125 C 44.441406 215.058594 25.578125 211.660156 7.847656 196.949219 Z M 7.847656 196.949219 " fill-opacity="1" fill-rule="evenodd"/><g clip-path="url(#64f7c70d62)"><path fill="#9adaf3" d="M 0.304688 186.007812 C 5.207031 188.273438 8.980469 192.046875 12 196.570312 L 11.621094 196.949219 L 11.621094 197.703125 C 8.605469 201.097656 4.832031 204.117188 0.304688 205.625 Z M 0.304688 186.007812 " fill-opacity="1" fill-rule="evenodd"/></g><path fill="#9adaf3" d="M 58.023438 215.8125 C 51.230469 218.453125 38.027344 218.828125 34.632812 218.828125 C 31.992188 218.453125 39.539062 213.546875 41.425781 211.660156 C 43.308594 212.792969 58.023438 215.8125 58.023438 215.8125 Z M 58.023438 215.8125 " fill-opacity="1" fill-rule="evenodd"/><path fill="#9adaf3" d="M 101.40625 310.875 C 108.195312 304.085938 122.152344 293.144531 137.621094 298.804688 C 139.128906 299.558594 144.035156 302.199219 144.035156 302.199219 C 143.65625 305.59375 141.769531 310.875 131.960938 313.140625 C 124.792969 315.027344 113.476562 316.15625 101.40625 310.875 Z M 101.40625 310.875 " fill-opacity="1" fill-rule="evenodd"/><path fill="#9adaf3" d="M 95.371094 312.386719 C 94.613281 311.253906 93.484375 309.367188 92.730469 308.613281 C 92.351562 308.234375 91.21875 306.347656 92.730469 306.347656 C 96.878906 305.972656 100.652344 307.480469 103.667969 310.121094 L 103.667969 310.875 C 101.78125 314.648438 99.140625 317.667969 95.371094 318.796875 C 94.238281 319.175781 94.238281 317.289062 94.613281 316.535156 C 94.613281 315.402344 94.992188 313.140625 95.371094 312.386719 Z M 95.371094 312.386719 " fill-opacity="1" fill-rule="evenodd"/><path fill="#9adaf3" d="M 131.960938 313.140625 C 128.945312 315.78125 121.777344 318.042969 119.890625 318.421875 C 118.382812 318.796875 121.777344 315.027344 122.152344 313.515625 C 123.664062 313.894531 131.960938 313.140625 131.960938 313.140625 Z M 131.960938 313.140625 " fill-opacity="1" fill-rule="evenodd"/><path fill="#9adaf3" d="M 172.703125 303.332031 C 181.003906 297.296875 199.109375 288.242188 214.578125 297.671875 C 216.085938 298.804688 220.613281 302.953125 220.613281 302.953125 C 219.859375 306.347656 216.085938 312.007812 205.523438 312.007812 C 196.847656 312.386719 184.777344 311.628906 172.703125 303.332031 Z M 172.703125 303.332031 " fill-opacity="1" fill-rule="evenodd"/><path fill="#9adaf3" d="M 165.535156 303.332031 C 165.160156 302.199219 164.027344 299.9375 163.648438 298.804688 C 163.273438 298.050781 162.519531 296.164062 164.027344 296.164062 C 168.554688 296.539062 172.328125 299.183594 174.96875 302.953125 L 174.96875 303.707031 C 172.328125 307.105469 168.554688 309.746094 164.027344 310.5 C 162.519531 310.5 163.273438 308.613281 163.648438 307.859375 C 164.027344 306.726562 165.160156 304.464844 165.535156 303.332031 Z M 165.535156 303.332031 " fill-opacity="1" fill-rule="evenodd"/><path fill="#9adaf3" d="M 205.523438 312.007812 C 201.375 314.269531 193.074219 315.402344 190.8125 315.402344 C 189.304688 315.402344 193.828125 312.007812 194.585938 310.5 C 196.09375 311.253906 205.523438 312.007812 205.523438 312.007812 Z M 205.523438 312.007812 " fill-opacity="1" fill-rule="evenodd"/><path fill="#9adaf3" d="M 301.722656 290.128906 C 301.34375 277.679688 303.984375 253.535156 323.601562 244.105469 C 325.863281 243.351562 333.03125 241.085938 333.03125 241.085938 C 335.671875 244.480469 339.066406 251.648438 332.277344 262.964844 C 326.996094 271.644531 317.941406 283.335938 301.722656 290.128906 Z M 301.722656 290.128906 " fill-opacity="1" fill-rule="evenodd"/><path fill="#9adaf3" d="M 297.195312 297.296875 C 295.683594 296.917969 292.667969 296.539062 291.535156 296.164062 C 290.402344 296.164062 287.761719 295.410156 288.894531 293.898438 C 292.289062 289.75 297.570312 287.863281 302.851562 287.109375 L 303.605469 287.863281 C 305.492188 292.769531 305.871094 298.425781 303.605469 303.332031 C 302.851562 304.839844 300.964844 302.578125 300.589844 301.824219 C 299.835938 300.691406 297.949219 298.425781 297.195312 297.296875 Z M 297.195312 297.296875 " fill-opacity="1" fill-rule="evenodd"/><path fill="#9adaf3" d="M 332.277344 262.964844 C 331.898438 268.246094 327.375 277.300781 325.863281 279.566406 C 325.109375 281.453125 324.355469 274.285156 323.601562 272.773438 C 325.109375 271.644531 332.277344 262.964844 332.277344 262.964844 Z M 332.277344 262.964844 " fill-opacity="1" fill-rule="evenodd"/><path fill="#9adaf3" d="M 274.9375 199.589844 C 276.824219 187.140625 283.613281 164.128906 304.738281 158.46875 C 306.625 158.09375 314.167969 157.339844 314.167969 157.339844 C 316.433594 161.109375 318.320312 168.65625 309.644531 178.464844 C 302.851562 186.007812 291.914062 195.816406 274.9375 199.589844 Z M 274.9375 199.589844 " fill-opacity="1" fill-rule="evenodd"/><path fill="#9adaf3" d="M 268.902344 206.003906 C 267.769531 205.25 265.128906 204.492188 263.621094 203.738281 C 262.863281 203.738281 260.222656 202.609375 261.734375 201.476562 C 265.503906 197.703125 271.164062 196.570312 276.445312 196.949219 L 277.199219 197.703125 C 277.953125 202.984375 277.199219 208.644531 274.183594 212.792969 C 273.050781 214.300781 271.917969 212.039062 271.542969 210.90625 C 270.785156 209.777344 269.65625 207.132812 268.902344 206.003906 Z M 268.902344 206.003906 " fill-opacity="1" fill-rule="evenodd"/><path fill="#9adaf3" d="M 309.644531 178.464844 C 308.132812 183.746094 302.476562 191.667969 300.589844 193.929688 C 299.078125 195.0625 299.835938 188.273438 299.457031 186.386719 C 301.34375 185.632812 309.644531 178.464844 309.644531 178.464844 Z M 309.644531 178.464844 " fill-opacity="1" fill-rule="evenodd"/><path fill="#9adaf3" d="M 301.34375 113.957031 C 306.625 102.640625 320.207031 83.023438 342.460938 84.152344 C 344.347656 84.152344 351.894531 85.664062 351.894531 85.664062 C 352.648438 90.191406 352.269531 97.734375 340.953125 104.523438 C 332.277344 109.804688 318.695312 115.84375 301.34375 113.957031 Z M 301.34375 113.957031 " fill-opacity="1" fill-rule="evenodd"/><path fill="#9adaf3" d="M 293.796875 118.105469 C 292.667969 116.972656 290.402344 115.464844 289.273438 114.332031 C 288.515625 113.957031 286.253906 112.070312 288.140625 111.316406 C 293.042969 109.429688 298.324219 109.804688 303.605469 112.070312 L 303.605469 112.445312 L 303.984375 112.824219 C 303.230469 118.105469 300.589844 123.386719 296.4375 126.40625 C 294.929688 127.535156 294.554688 124.519531 294.554688 123.765625 C 294.175781 122.253906 293.796875 119.238281 293.796875 118.105469 Z M 293.796875 118.105469 " fill-opacity="1" fill-rule="evenodd"/><path fill="#9adaf3" d="M 340.953125 104.523438 C 337.9375 109.050781 329.636719 114.710938 327.375 116.21875 C 325.863281 117.351562 328.503906 110.9375 328.882812 109.050781 C 330.390625 108.675781 340.953125 104.523438 340.953125 104.523438 Z M 340.953125 104.523438 " fill-opacity="1" fill-rule="evenodd"/><path fill="#9adaf3" d="M 111.589844 336.152344 C 120.265625 332 137.621094 327.097656 149.691406 338.414062 C 150.824219 339.546875 154.21875 343.695312 154.21875 343.695312 C 152.710938 346.714844 148.5625 350.863281 139.128906 349.355469 C 131.585938 348.222656 120.644531 345.207031 111.589844 336.152344 Z M 111.589844 336.152344 " fill-opacity="1" fill-rule="evenodd"/><path fill="#9adaf3" d="M 105.179688 334.640625 C 105.179688 333.886719 104.800781 331.625 104.421875 330.492188 C 104.421875 329.738281 104.046875 327.851562 105.179688 328.230469 C 108.949219 329.359375 111.96875 332.378906 113.855469 335.773438 L 113.855469 336.527344 C 110.835938 339.167969 107.0625 341.054688 102.914062 340.679688 C 101.40625 340.679688 102.539062 338.792969 102.914062 338.414062 C 103.667969 337.660156 104.800781 335.773438 105.179688 334.640625 Z M 105.179688 334.640625 " fill-opacity="1" fill-rule="evenodd"/><path fill="#9adaf3" d="M 139.128906 349.355469 C 134.980469 350.488281 127.8125 350.109375 125.550781 349.730469 C 124.417969 349.730469 128.945312 347.089844 129.699219 346.335938 C 131.207031 347.089844 139.128906 349.355469 139.128906 349.355469 Z M 139.128906 349.355469 " fill-opacity="1" fill-rule="evenodd"/><path fill="#9adaf3" d="M 55.382812 296.917969 C 60.664062 292.769531 72.359375 286.355469 82.542969 292.390625 C 83.296875 293.144531 86.691406 295.785156 86.691406 295.785156 C 85.9375 298.050781 83.675781 301.824219 76.882812 302.199219 C 71.226562 302.199219 63.304688 301.824219 55.382812 296.917969 Z M 55.382812 296.917969 " fill-opacity="1" fill-rule="evenodd"/><path fill="#9adaf3" d="M 50.476562 296.917969 C 50.476562 296.164062 49.722656 294.65625 49.347656 293.898438 C 48.96875 293.523438 48.589844 292.015625 49.347656 292.390625 C 52.363281 292.390625 55.003906 294.277344 56.890625 296.539062 L 56.890625 296.917969 C 55.003906 299.183594 52.742188 301.066406 49.722656 301.445312 C 48.96875 301.824219 49.347656 300.3125 49.347656 299.9375 C 49.722656 299.183594 50.476562 297.671875 50.476562 296.917969 Z M 50.476562 296.917969 " fill-opacity="1" fill-rule="evenodd"/><path fill="#9adaf3" d="M 76.882812 302.199219 C 74.242188 303.332031 68.960938 304.464844 67.078125 304.464844 C 66.320312 304.464844 68.960938 302.199219 69.71875 301.066406 C 70.847656 301.445312 76.882812 302.199219 76.882812 302.199219 Z M 76.882812 302.199219 " fill-opacity="1" fill-rule="evenodd"/><path fill="#9adaf3" d="M 215.710938 273.152344 C 217.972656 267.117188 224.386719 255.421875 236.457031 255.042969 C 237.589844 255.042969 241.738281 255.800781 241.738281 255.800781 C 242.117188 258.0625 242.492188 262.210938 236.457031 266.363281 C 232.308594 269.378906 225.140625 273.527344 215.710938 273.152344 Z M 215.710938 273.152344 " fill-opacity="1" fill-rule="evenodd"/><path fill="#9adaf3" d="M 211.558594 275.792969 C 211.183594 275.414062 209.671875 274.660156 208.917969 274.285156 C 208.542969 273.90625 207.410156 272.773438 208.164062 272.398438 C 210.804688 271.265625 213.824219 271.265625 216.839844 272.019531 L 216.839844 272.398438 C 216.839844 275.414062 215.710938 278.433594 213.445312 280.320312 C 212.691406 280.695312 212.316406 279.566406 212.316406 278.8125 C 212.316406 278.054688 211.9375 276.546875 211.558594 275.792969 Z M 211.558594 275.792969 " fill-opacity="1" fill-rule="evenodd"/><path fill="#9adaf3" d="M 236.457031 266.363281 C 235.328125 269.003906 231.175781 272.398438 229.667969 273.152344 C 228.914062 273.90625 230.042969 270.511719 230.042969 269.378906 C 231.175781 269.003906 236.457031 266.363281 236.457031 266.363281 Z M 236.457031 266.363281 " fill-opacity="1" fill-rule="evenodd"/><path fill="#9adaf3" d="M 293.796875 245.613281 C 293.421875 236.183594 295.308594 218.074219 310.398438 210.90625 C 311.90625 210.53125 317.1875 208.644531 317.1875 208.644531 C 319.449219 211.285156 321.714844 216.566406 316.808594 224.863281 C 312.660156 231.65625 305.871094 240.332031 293.796875 245.613281 Z M 293.796875 245.613281 " fill-opacity="1" fill-rule="evenodd"/><path fill="#9adaf3" d="M 290.027344 250.894531 C 289.273438 250.515625 287.007812 250.140625 285.875 250.140625 C 285.121094 250.140625 283.234375 249.386719 283.992188 248.632812 C 286.632812 245.234375 290.402344 243.726562 294.554688 243.351562 L 294.929688 243.726562 L 295.308594 243.726562 C 296.4375 247.5 296.816406 251.648438 294.929688 255.421875 C 294.554688 256.554688 293.042969 255.042969 292.667969 254.289062 C 291.914062 253.535156 290.78125 251.648438 290.027344 250.894531 Z M 290.027344 250.894531 " fill-opacity="1" fill-rule="evenodd"/><path fill="#9adaf3" d="M 316.808594 224.863281 C 316.433594 229.015625 313.039062 235.804688 311.90625 237.691406 C 311.152344 238.824219 310.773438 233.917969 310.398438 232.410156 C 311.527344 231.65625 316.808594 224.863281 316.808594 224.863281 Z M 316.808594 224.863281 " fill-opacity="1" fill-rule="evenodd"/><path fill="#9adaf3" d="M 247.773438 292.390625 C 251.546875 282.960938 261.734375 265.605469 280.21875 265.230469 C 281.726562 265.230469 288.140625 265.984375 288.140625 265.984375 C 288.894531 269.378906 288.894531 276.171875 280.21875 282.207031 C 273.050781 287.109375 262.488281 292.769531 247.773438 292.390625 Z M 247.773438 292.390625 " fill-opacity="1" fill-rule="evenodd"/><path fill="#9adaf3" d="M 241.738281 296.164062 C 240.984375 295.410156 238.722656 294.277344 237.96875 293.523438 C 237.210938 293.144531 235.328125 291.636719 236.835938 290.882812 C 240.609375 288.996094 245.132812 289.375 249.660156 290.503906 L 249.660156 290.882812 L 250.039062 291.257812 C 249.660156 295.785156 247.773438 300.3125 244.378906 302.953125 C 243.25 304.085938 242.871094 301.824219 242.492188 301.066406 C 242.492188 299.9375 242.117188 297.296875 241.738281 296.164062 Z M 241.738281 296.164062 " fill-opacity="1" fill-rule="evenodd"/><path fill="#9adaf3" d="M 280.21875 282.207031 C 277.953125 285.976562 271.542969 291.257812 269.65625 292.769531 C 268.144531 293.523438 270.03125 288.242188 270.410156 286.734375 C 271.917969 286.355469 280.21875 282.207031 280.21875 282.207031 Z M 280.21875 282.207031 " fill-opacity="1" fill-rule="evenodd"/><path fill="#9adaf3" d="M 257.207031 249.761719 C 258.714844 242.21875 262.863281 228.636719 275.3125 225.621094 C 276.824219 225.242188 280.972656 224.863281 280.972656 224.863281 C 282.480469 227.128906 283.613281 231.65625 278.332031 237.3125 C 274.183594 241.839844 267.390625 247.5 257.207031 249.761719 Z M 257.207031 249.761719 " fill-opacity="1" fill-rule="evenodd"/><path fill="#9adaf3" d="M 253.8125 253.15625 C 253.054688 252.78125 251.546875 252.402344 250.792969 252.027344 C 250.039062 251.648438 248.53125 251.273438 249.285156 250.515625 C 251.925781 248.253906 254.941406 247.875 258.339844 248.253906 L 258.714844 248.632812 C 259.09375 251.648438 258.714844 255.042969 256.828125 257.308594 C 256.074219 258.441406 255.320312 256.929688 255.320312 256.175781 C 254.941406 255.421875 254.1875 253.914062 253.8125 253.15625 Z M 253.8125 253.15625 " fill-opacity="1" fill-rule="evenodd"/><path fill="#9adaf3" d="M 278.332031 237.3125 C 277.199219 240.332031 273.804688 245.234375 272.671875 246.367188 C 271.917969 247.121094 272.296875 242.972656 272.296875 242.21875 C 273.050781 241.464844 278.332031 237.3125 278.332031 237.3125 Z M 278.332031 237.3125 " fill-opacity="1" fill-rule="evenodd"/><path fill="#9adaf3" d="M 226.273438 230.144531 C 227.78125 225.242188 231.929688 216.1875 240.984375 215.058594 C 242.117188 215.058594 245.132812 215.058594 245.132812 215.058594 C 245.890625 216.941406 245.890625 219.960938 242.117188 223.734375 C 238.722656 226.375 233.816406 229.769531 226.273438 230.144531 Z M 226.273438 230.144531 " fill-opacity="1" fill-rule="evenodd"/><path fill="#9adaf3" d="M 223.632812 232.410156 C 223.253906 232.03125 222.121094 231.65625 221.746094 231.277344 C 221.367188 230.902344 220.238281 230.523438 220.992188 230.144531 C 222.878906 229.015625 225.140625 228.636719 227.402344 229.390625 C 227.402344 231.65625 227.027344 233.917969 225.519531 235.429688 C 224.761719 236.183594 224.386719 235.050781 224.386719 234.671875 C 224.386719 233.917969 224.007812 232.789062 223.632812 232.410156 Z M 223.632812 232.410156 " fill-opacity="1" fill-rule="evenodd"/><path fill="#9adaf3" d="M 242.117188 223.734375 C 240.984375 225.621094 237.96875 228.636719 237.210938 229.390625 C 236.835938 229.769531 237.210938 227.128906 237.210938 226.375 C 237.96875 225.996094 242.117188 223.734375 242.117188 223.734375 Z M 242.117188 223.734375 " fill-opacity="1" fill-rule="evenodd"/><path fill="#9adaf3" d="M 333.785156 213.925781 C 332.277344 209.019531 330.769531 199.210938 337.558594 193.175781 C 338.3125 192.800781 340.953125 191.289062 340.953125 191.289062 C 342.460938 192.046875 344.347656 194.6875 342.839844 199.589844 C 341.707031 203.738281 339.445312 209.398438 333.785156 213.925781 Z M 333.785156 213.925781 " fill-opacity="1" fill-rule="evenodd"/><path fill="#9adaf3" d="M 332.65625 217.320312 C 332.277344 217.320312 330.769531 217.320312 330.390625 217.699219 C 330.015625 217.699219 328.882812 217.699219 329.257812 216.941406 C 330.015625 215.058594 331.898438 213.546875 333.785156 212.792969 L 334.164062 212.792969 C 335.671875 214.679688 336.425781 216.941406 336.050781 218.828125 C 335.671875 219.582031 334.917969 219.207031 334.539062 218.828125 C 334.164062 218.453125 333.03125 217.699219 332.65625 217.320312 Z M 332.65625 217.320312 " fill-opacity="1" fill-rule="evenodd"/><path fill="#9adaf3" d="M 342.839844 199.589844 C 343.21875 201.851562 342.460938 206.003906 342.085938 207.132812 C 342.085938 207.890625 340.953125 205.25 340.578125 204.492188 C 340.953125 204.117188 342.839844 199.589844 342.839844 199.589844 Z M 342.839844 199.589844 " fill-opacity="1" fill-rule="evenodd"/><path fill="#9adaf3" d="M 373.019531 80.003906 C 376.792969 76.609375 385.089844 70.949219 393.390625 74.722656 C 394.144531 75.101562 396.785156 76.988281 396.785156 76.988281 C 396.410156 78.871094 394.898438 81.511719 389.617188 82.644531 C 385.46875 83.023438 379.433594 83.398438 373.019531 80.003906 Z M 373.019531 80.003906 " fill-opacity="1" fill-rule="evenodd"/><path fill="#9adaf3" d="M 369.625 80.757812 C 369.246094 80.003906 368.492188 78.871094 368.492188 78.496094 C 368.117188 78.117188 367.738281 77.363281 368.492188 77.363281 C 370.378906 76.988281 372.640625 78.117188 374.152344 79.628906 L 374.152344 80.003906 C 373.019531 82.269531 371.511719 83.777344 369.246094 84.152344 C 368.492188 84.53125 368.871094 83.398438 368.871094 83.023438 C 369.246094 82.269531 369.246094 81.136719 369.625 80.757812 Z M 369.625 80.757812 " fill-opacity="1" fill-rule="evenodd"/><path fill="#9adaf3" d="M 389.617188 82.644531 C 387.730469 83.777344 383.960938 84.910156 382.828125 84.910156 C 382.074219 85.285156 383.960938 83.023438 384.335938 82.269531 C 385.089844 82.644531 389.617188 82.644531 389.617188 82.644531 Z M 389.617188 82.644531 " fill-opacity="1" fill-rule="evenodd"/><path fill="#9adaf3" d="M 302.476562 144.511719 C 304.363281 139.984375 309.644531 131.308594 318.695312 131.308594 C 319.449219 131.308594 322.46875 131.6875 322.46875 131.6875 C 322.847656 133.195312 322.847656 136.589844 318.695312 139.609375 C 314.925781 141.871094 309.644531 144.890625 302.476562 144.511719 Z M 302.476562 144.511719 " fill-opacity="1" fill-rule="evenodd"/><path fill="#9adaf3" d="M 299.457031 146.398438 C 299.078125 146.023438 297.949219 145.644531 297.570312 145.265625 C 297.195312 144.890625 296.4375 144.136719 296.816406 144.136719 C 299.078125 143.003906 301.34375 143.003906 303.230469 143.757812 L 303.605469 144.136719 C 303.230469 146.398438 302.476562 148.664062 300.964844 149.792969 C 300.210938 150.546875 299.835938 149.417969 299.835938 149.039062 C 299.835938 148.285156 299.457031 147.152344 299.457031 146.398438 Z M 299.457031 146.398438 " fill-opacity="1" fill-rule="evenodd"/><path fill="#9adaf3" d="M 318.695312 139.609375 C 317.566406 141.496094 314.167969 144.136719 313.414062 144.890625 C 312.660156 145.265625 313.792969 142.625 313.792969 141.871094 C 314.546875 141.871094 318.695312 139.609375 318.695312 139.609375 Z M 318.695312 139.609375 " fill-opacity="1" fill-rule="evenodd"/><path fill="#9adaf3" d="M 364.34375 110.183594 C 369.625 104.148438 380.941406 93.585938 394.523438 97.734375 C 395.652344 98.113281 400.179688 100.375 400.179688 100.375 C 399.804688 103.015625 398.671875 107.921875 390.371094 110.183594 C 384.335938 112.070312 374.90625 113.957031 364.34375 110.183594 Z M 364.34375 110.183594 " fill-opacity="1" fill-rule="evenodd"/><path fill="#9adaf3" d="M 359.0625 111.316406 C 358.683594 110.5625 357.550781 109.050781 357.175781 108.675781 C 356.796875 107.921875 355.667969 106.789062 356.796875 106.410156 C 360.191406 106.035156 363.589844 107.164062 366.230469 109.050781 L 366.230469 109.804688 C 365.097656 112.824219 362.832031 115.84375 359.816406 116.972656 C 358.683594 117.351562 358.683594 115.464844 358.683594 115.085938 C 359.0625 114.332031 359.0625 112.445312 359.0625 111.316406 Z M 359.0625 111.316406 " fill-opacity="1" fill-rule="evenodd"/><path fill="#9adaf3" d="M 390.371094 110.183594 C 388.109375 112.445312 382.074219 115.085938 380.1875 115.464844 C 379.054688 115.84375 381.695312 112.445312 382.449219 111.316406 C 383.582031 111.316406 390.371094 110.183594 390.371094 110.183594 Z M 390.371094 110.183594 " fill-opacity="1" fill-rule="evenodd"/><g clip-path="url(#3fcd1102f1)"><path fill="#9adaf3" d="M 442.054688 92.074219 C 439.035156 92.832031 435.640625 93.207031 434.132812 93.207031 C 433 93.207031 436.773438 90.191406 437.527344 89.433594 C 438.28125 89.433594 440.167969 89.8125 442.054688 90.191406 Z M 442.054688 92.074219 " fill-opacity="1" fill-rule="evenodd"/></g><path fill="#9adaf3" d="M 369.246094 167.902344 C 370.378906 162.996094 373.398438 153.566406 382.449219 151.304688 C 383.203125 151.304688 386.222656 150.925781 386.222656 150.925781 C 386.976562 152.8125 387.730469 155.828125 383.960938 159.601562 C 381.320312 162.621094 376.414062 166.769531 369.246094 167.902344 Z M 369.246094 167.902344 " fill-opacity="1" fill-rule="evenodd"/><path fill="#9adaf3" d="M 366.984375 170.542969 C 366.230469 170.164062 365.097656 169.789062 364.71875 169.410156 C 364.34375 169.410156 363.210938 169.035156 363.964844 168.277344 C 365.472656 167.148438 367.738281 166.769531 370 166.769531 L 370.378906 167.148438 C 370.757812 169.410156 370.378906 171.675781 368.871094 173.558594 C 368.492188 173.9375 367.738281 172.804688 367.738281 172.429688 C 367.738281 172.050781 366.984375 170.917969 366.984375 170.542969 Z M 366.984375 170.542969 " fill-opacity="1" fill-rule="evenodd"/><path fill="#9adaf3" d="M 383.960938 159.601562 C 383.203125 161.867188 380.941406 164.882812 380.1875 166.015625 C 379.433594 166.394531 379.808594 163.75 379.808594 162.996094 C 380.5625 162.621094 383.960938 159.601562 383.960938 159.601562 Z M 383.960938 159.601562 " fill-opacity="1" fill-rule="evenodd"/><path fill="#9adaf3" d="M 197.226562 150.171875 C 200.996094 145.644531 209.671875 138.097656 219.480469 141.496094 C 220.613281 141.496094 223.632812 143.003906 223.632812 143.003906 C 223.632812 145.265625 222.5 148.664062 216.464844 150.546875 C 211.9375 151.679688 205.148438 153.1875 197.226562 150.171875 Z M 197.226562 150.171875 " fill-opacity="1" fill-rule="evenodd"/><path fill="#9adaf3" d="M 193.453125 151.304688 C 193.074219 150.546875 192.320312 149.792969 191.945312 149.039062 C 191.566406 148.664062 190.8125 147.53125 191.566406 147.53125 C 194.207031 147.152344 196.46875 148.285156 198.734375 149.792969 L 198.734375 150.171875 C 197.601562 152.433594 196.09375 154.320312 193.828125 155.453125 C 193.074219 155.828125 193.074219 154.320312 193.074219 153.945312 C 193.074219 153.1875 193.453125 152.058594 193.453125 151.304688 Z M 193.453125 151.304688 " fill-opacity="1" fill-rule="evenodd"/><path fill="#9adaf3" d="M 216.464844 150.546875 C 214.578125 152.058594 210.429688 153.945312 208.917969 154.320312 C 208.164062 154.699219 210.050781 152.058594 210.429688 151.304688 C 211.183594 151.304688 216.464844 150.546875 216.464844 150.546875 Z M 216.464844 150.546875 " fill-opacity="1" fill-rule="evenodd"/><path fill="#9adaf3" d="M 208.542969 229.015625 C 209.671875 225.621094 212.691406 218.828125 219.105469 218.074219 C 219.480469 218.074219 221.746094 218.453125 221.746094 218.453125 C 222.121094 219.582031 222.5 221.847656 219.480469 224.109375 C 217.21875 225.996094 213.824219 228.636719 208.542969 229.015625 Z M 208.542969 229.015625 " fill-opacity="1" fill-rule="evenodd"/><path fill="#9adaf3" d="M 206.65625 230.523438 C 206.277344 230.144531 205.523438 229.769531 205.148438 229.769531 C 204.769531 229.390625 204.015625 229.015625 204.390625 229.015625 C 205.902344 227.882812 207.410156 227.882812 208.917969 228.261719 L 209.296875 228.261719 L 209.296875 228.636719 C 209.296875 230.144531 208.917969 231.65625 207.789062 232.789062 C 207.410156 233.164062 207.03125 232.410156 207.03125 232.03125 C 207.03125 231.65625 206.65625 230.902344 206.65625 230.523438 Z M 206.65625 230.523438 " fill-opacity="1" fill-rule="evenodd"/><path fill="#9adaf3" d="M 219.480469 224.109375 C 218.726562 225.621094 216.839844 227.882812 216.085938 228.261719 C 215.710938 228.636719 216.085938 226.75 216.085938 225.996094 C 216.839844 225.996094 219.480469 224.109375 219.480469 224.109375 Z M 219.480469 224.109375 " fill-opacity="1" fill-rule="evenodd"/><path fill="#9adaf3" d="M 225.894531 176.199219 C 227.027344 172.429688 230.042969 166.015625 236.457031 165.261719 C 236.835938 165.261719 239.097656 165.261719 239.097656 165.261719 C 239.476562 166.769531 239.851562 169.035156 236.835938 171.296875 C 234.570312 173.183594 231.175781 175.824219 225.894531 176.199219 Z M 225.894531 176.199219 " fill-opacity="1" fill-rule="evenodd"/><path fill="#9adaf3" d="M 224.007812 177.710938 C 223.632812 177.332031 222.878906 176.957031 222.5 176.957031 C 222.121094 176.578125 221.367188 176.199219 222.121094 175.824219 C 223.253906 175.070312 224.761719 175.070312 226.648438 175.445312 C 226.648438 177.332031 226.273438 178.839844 225.140625 179.972656 C 224.761719 180.351562 224.386719 179.597656 224.386719 179.21875 C 224.386719 178.839844 224.007812 178.085938 224.007812 177.710938 Z M 224.007812 177.710938 " fill-opacity="1" fill-rule="evenodd"/><path fill="#9adaf3" d="M 236.835938 171.296875 C 236.457031 172.804688 234.195312 175.070312 233.441406 175.445312 C 233.0625 175.824219 233.816406 173.9375 233.816406 173.183594 C 234.195312 173.183594 236.835938 171.296875 236.835938 171.296875 Z M 236.835938 171.296875 " fill-opacity="1" fill-rule="evenodd"/><path fill="#9adaf3" d="M 242.492188 145.644531 C 244.003906 142.25 248.152344 136.214844 254.566406 136.589844 C 254.941406 136.589844 257.207031 136.96875 257.207031 136.96875 C 257.582031 138.476562 257.582031 140.738281 254.1875 142.625 C 251.546875 144.136719 247.773438 146.023438 242.492188 145.644531 Z M 242.492188 145.644531 " fill-opacity="1" fill-rule="evenodd"/><path fill="#9adaf3" d="M 240.230469 146.777344 C 239.851562 146.398438 239.476562 146.023438 239.097656 145.644531 C 238.722656 145.644531 237.96875 144.890625 238.722656 144.890625 C 240.230469 144.136719 241.738281 144.511719 243.25 144.890625 L 243.25 145.265625 C 243.25 146.777344 242.492188 148.285156 240.984375 149.417969 C 240.609375 149.417969 240.609375 148.664062 240.609375 148.285156 C 240.609375 147.90625 240.230469 147.152344 240.230469 146.777344 Z M 240.230469 146.777344 " fill-opacity="1" fill-rule="evenodd"/><path fill="#9adaf3" d="M 254.1875 142.625 C 253.433594 144.136719 250.792969 145.644531 250.039062 146.023438 C 249.660156 146.398438 250.414062 144.511719 250.414062 144.136719 C 251.171875 144.136719 254.1875 142.625 254.1875 142.625 Z M 254.1875 142.625 " fill-opacity="1" fill-rule="evenodd"/><path fill="#9adaf3" d="M 159.125 278.054688 C 163.273438 274.660156 172.703125 269.757812 181.003906 274.660156 C 181.757812 275.039062 184.398438 277.300781 184.398438 277.300781 C 183.644531 278.8125 182.136719 281.828125 176.476562 282.207031 C 171.949219 282.582031 165.535156 282.207031 159.125 278.054688 Z M 159.125 278.054688 " fill-opacity="1" fill-rule="evenodd"/><path fill="#9adaf3" d="M 155.351562 278.054688 C 154.972656 277.300781 154.597656 276.171875 154.21875 275.792969 C 154.21875 275.414062 153.464844 274.285156 154.597656 274.285156 C 156.859375 274.660156 158.746094 275.792969 160.253906 277.679688 L 160.253906 278.054688 C 158.746094 279.941406 156.859375 281.453125 154.597656 281.828125 C 153.84375 281.828125 154.21875 280.695312 154.597656 280.320312 C 154.597656 279.941406 154.972656 278.8125 155.351562 278.054688 Z M 155.351562 278.054688 " fill-opacity="1" fill-rule="evenodd"/><path fill="#9adaf3" d="M 176.476562 282.207031 C 174.214844 283.335938 170.0625 284.09375 168.554688 284.09375 C 167.800781 284.09375 170.0625 282.207031 170.816406 281.453125 C 171.574219 281.828125 176.476562 282.207031 176.476562 282.207031 Z M 176.476562 282.207031 " fill-opacity="1" fill-rule="evenodd"/><path fill="#9adaf3" d="M 98.765625 221.09375 C 103.667969 216.1875 114.230469 208.644531 125.171875 213.171875 C 126.304688 213.546875 129.699219 215.8125 129.699219 215.8125 C 129.699219 218.074219 127.8125 222.222656 121.023438 223.355469 C 115.363281 224.488281 107.441406 225.242188 98.765625 221.09375 Z M 98.765625 221.09375 " fill-opacity="1" fill-rule="evenodd"/><path fill="#9adaf3" d="M 94.238281 221.847656 C 93.859375 221.09375 93.105469 219.582031 92.730469 219.207031 C 92.351562 218.828125 91.597656 217.320312 92.730469 217.320312 C 95.371094 216.941406 98.011719 218.453125 100.273438 220.339844 L 100.273438 221.09375 C 99.140625 223.355469 96.878906 225.621094 94.238281 226.375 C 93.105469 226.75 93.484375 225.242188 93.484375 224.863281 C 93.859375 224.109375 94.238281 222.601562 94.238281 221.847656 Z M 94.238281 221.847656 " fill-opacity="1" fill-rule="evenodd"/><path fill="#9adaf3" d="M 121.023438 223.355469 C 118.382812 225.242188 113.101562 226.75 111.589844 227.128906 C 110.835938 227.128906 113.476562 224.488281 113.855469 223.355469 C 114.609375 223.734375 121.023438 223.355469 121.023438 223.355469 Z M 121.023438 223.355469 " fill-opacity="1" fill-rule="evenodd"/><path fill="#9adaf3" d="M 175.34375 207.890625 C 181.003906 201.476562 193.453125 190.914062 207.789062 195.441406 C 208.917969 195.816406 213.445312 198.457031 213.445312 198.457031 C 213.445312 201.097656 211.558594 206.378906 202.882812 208.644531 C 196.46875 210.53125 186.285156 212.039062 175.34375 207.890625 Z M 175.34375 207.890625 " fill-opacity="1" fill-rule="evenodd"/><path fill="#9adaf3" d="M 169.6875 209.019531 C 169.308594 208.265625 167.800781 206.757812 167.421875 206.003906 C 167.046875 205.625 165.914062 203.738281 167.046875 203.738281 C 170.816406 203.363281 174.214844 204.492188 177.230469 206.757812 L 177.230469 207.511719 C 175.722656 210.90625 173.457031 213.925781 170.0625 215.058594 C 168.933594 215.433594 168.933594 213.546875 168.933594 212.792969 C 169.308594 212.039062 169.6875 210.152344 169.6875 209.019531 Z M 169.6875 209.019531 " fill-opacity="1" fill-rule="evenodd"/><path fill="#9adaf3" d="M 202.882812 208.644531 C 200.242188 210.90625 193.828125 213.546875 191.945312 213.925781 C 190.8125 214.300781 193.828125 210.53125 194.207031 209.398438 C 195.339844 209.777344 202.882812 208.644531 202.882812 208.644531 Z M 202.882812 208.644531 " fill-opacity="1" fill-rule="evenodd"/><path fill="#9adaf3" d="M 236.082031 198.457031 C 237.210938 190.160156 241.738281 174.316406 256.453125 170.542969 C 257.582031 170.164062 262.863281 169.410156 262.863281 169.410156 C 264.375 172.050781 265.503906 177.332031 259.847656 183.746094 C 255.320312 189.027344 247.773438 195.816406 236.082031 198.457031 Z M 236.082031 198.457031 " fill-opacity="1" fill-rule="evenodd"/><path fill="#9adaf3" d="M 232.308594 202.609375 C 231.175781 202.230469 229.289062 201.851562 228.535156 201.476562 C 227.78125 201.097656 226.273438 200.34375 227.027344 199.589844 C 229.667969 197.328125 233.441406 196.570312 237.210938 196.570312 L 237.589844 196.949219 L 237.589844 197.328125 C 238.34375 200.722656 237.96875 204.492188 235.703125 207.511719 C 234.949219 208.644531 234.195312 206.757812 233.816406 206.378906 C 233.441406 205.25 232.683594 203.738281 232.308594 202.609375 Z M 232.308594 202.609375 " fill-opacity="1" fill-rule="evenodd"/><path fill="#9adaf3" d="M 259.847656 183.746094 C 258.714844 187.519531 254.941406 193.175781 253.433594 194.308594 C 252.679688 195.441406 253.054688 190.914062 253.054688 189.40625 C 254.1875 189.027344 259.847656 183.746094 259.847656 183.746094 Z M 259.847656 183.746094 " fill-opacity="1" fill-rule="evenodd"/><path fill="#9adaf3" d="M 335.296875 167.523438 C 334.917969 158.847656 336.804688 142.625 350.386719 136.214844 C 351.515625 135.457031 356.421875 133.949219 356.421875 133.949219 C 358.308594 136.214844 360.570312 141.117188 356.042969 148.664062 C 352.648438 154.699219 346.234375 162.621094 335.296875 167.523438 Z M 335.296875 167.523438 " fill-opacity="1" fill-rule="evenodd"/><path fill="#9adaf3" d="M 332.277344 172.429688 C 331.523438 172.050781 329.257812 171.675781 328.503906 171.675781 C 327.75 171.675781 325.863281 170.917969 326.617188 170.164062 C 328.882812 167.148438 332.65625 166.015625 336.050781 165.636719 L 336.425781 165.636719 L 336.804688 166.015625 C 337.9375 169.410156 338.3125 173.183594 336.425781 176.578125 C 336.050781 177.332031 334.917969 175.824219 334.539062 175.445312 C 334.164062 174.691406 333.03125 173.183594 332.277344 172.429688 Z M 332.277344 172.429688 " fill-opacity="1" fill-rule="evenodd"/><path fill="#9adaf3" d="M 356.042969 148.664062 C 355.667969 152.433594 352.648438 158.46875 351.894531 160.355469 C 351.140625 161.488281 350.761719 156.585938 350.386719 155.453125 C 351.140625 154.699219 356.042969 148.664062 356.042969 148.664062 Z M 356.042969 148.664062 " fill-opacity="1" fill-rule="evenodd"/><g clip-path="url(#aa4f8efe7d)"><path fill="#9adaf3" d="M 398.671875 128.292969 C 406.214844 122.253906 422.0625 112.824219 436.773438 120.746094 C 437.90625 121.5 440.921875 123.765625 442.054688 124.519531 L 442.054688 126.40625 C 440.921875 129.800781 437.527344 133.574219 429.226562 134.328125 C 421.683594 135.082031 410.367188 135.082031 398.671875 128.292969 Z M 398.671875 128.292969 " fill-opacity="1" fill-rule="evenodd"/></g><path fill="#9adaf3" d="M 392.257812 128.667969 C 391.882812 127.535156 390.75 125.652344 390.371094 124.519531 C 389.996094 124.140625 389.242188 121.878906 390.371094 121.878906 C 394.523438 122.253906 398.292969 124.519531 400.933594 127.535156 L 400.933594 128.292969 C 398.671875 131.6875 395.277344 134.328125 391.503906 135.082031 C 389.996094 135.457031 390.75 133.195312 390.75 132.816406 C 391.128906 131.6875 391.882812 129.421875 392.257812 128.667969 Z M 392.257812 128.667969 " fill-opacity="1" fill-rule="evenodd"/><path fill="#9adaf3" d="M 429.226562 134.328125 C 425.457031 136.589844 418.289062 138.097656 416.023438 138.097656 C 414.515625 138.097656 418.664062 134.703125 419.421875 133.574219 C 420.550781 133.949219 429.226562 134.328125 429.226562 134.328125 Z M 429.226562 134.328125 " fill-opacity="1" fill-rule="evenodd"/><g clip-path="url(#4652f1dcb5)"><path fill="#9adaf3" d="M 0.304688 244.105469 C 4.832031 243.351562 10.867188 243.726562 15.015625 248.253906 C 15.394531 248.632812 16.902344 250.894531 16.902344 250.894531 C 15.773438 252.402344 13.886719 253.914062 9.359375 252.78125 C 6.71875 252.027344 3.699219 250.894531 0.304688 248.253906 Z M 0.304688 244.105469 " fill-opacity="1" fill-rule="evenodd"/></g><path fill="#9adaf3" d="M 13.507812 167.148438 C 17.65625 165.261719 25.578125 162.621094 31.617188 167.902344 C 31.992188 168.277344 33.878906 170.164062 33.878906 170.164062 C 33.125 171.675781 31.238281 173.558594 26.710938 173.183594 C 23.316406 172.804688 18.035156 171.296875 13.507812 167.148438 Z M 13.507812 167.148438 " fill-opacity="1" fill-rule="evenodd"/><path fill="#9adaf3" d="M 10.488281 166.769531 C 10.488281 166.394531 10.488281 165.261719 10.113281 164.882812 C 10.113281 164.507812 10.113281 163.375 10.488281 163.75 C 12.375 164.128906 13.886719 165.636719 14.640625 167.148438 L 14.640625 167.523438 C 13.132812 168.65625 11.621094 169.789062 9.734375 169.789062 C 8.980469 169.789062 9.359375 168.65625 9.734375 168.277344 C 9.734375 167.902344 10.488281 167.148438 10.488281 166.769531 Z M 10.488281 166.769531 " fill-opacity="1" fill-rule="evenodd"/><path fill="#9adaf3" d="M 26.710938 173.183594 C 24.824219 173.558594 21.429688 173.558594 20.296875 173.558594 C 19.921875 173.558594 21.808594 172.429688 22.5625 171.675781 C 22.9375 172.050781 26.710938 173.183594 26.710938 173.183594 Z M 26.710938 173.183594 " fill-opacity="1" fill-rule="evenodd"/><path fill="#9adaf3" d="M 18.035156 316.910156 C 27.84375 311.253906 48.589844 303.707031 64.058594 316.15625 C 65.566406 317.667969 70.09375 322.570312 70.09375 322.570312 C 68.585938 326.34375 64.058594 331.625 52.363281 330.492188 C 42.933594 329.738281 29.730469 327.097656 18.035156 316.910156 Z M 18.035156 316.910156 " fill-opacity="1" fill-rule="evenodd"/><path fill="#9adaf3" d="M 10.113281 315.78125 C 10.113281 314.648438 9.359375 312.007812 8.980469 310.875 C 8.605469 310.121094 7.847656 307.480469 9.734375 307.859375 C 14.261719 308.988281 18.035156 312.386719 20.675781 316.535156 L 20.675781 317.289062 C 17.28125 321.0625 12.753906 323.324219 7.847656 323.324219 C 6.339844 323.324219 7.472656 321.0625 7.847656 320.308594 C 8.226562 319.175781 9.734375 316.910156 10.113281 315.78125 Z M 10.113281 315.78125 " fill-opacity="1" fill-rule="evenodd"/><path fill="#9adaf3" d="M 52.363281 330.492188 C 47.460938 332.378906 38.40625 332.378906 36.144531 332.378906 C 34.257812 332 39.539062 328.984375 40.667969 327.476562 C 42.179688 328.230469 52.363281 330.492188 52.363281 330.492188 Z M 52.363281 330.492188 " fill-opacity="1" fill-rule="evenodd"/><path fill="#9adaf3" d="M 45.949219 238.824219 C 53.871094 234.671875 69.339844 228.636719 81.035156 238.445312 C 82.167969 239.199219 85.9375 242.972656 85.9375 242.972656 C 84.429688 245.613281 81.035156 249.761719 72.359375 249.007812 C 65.191406 248.632812 55.382812 246.746094 45.949219 238.824219 Z M 45.949219 238.824219 " fill-opacity="1" fill-rule="evenodd"/><path fill="#9adaf3" d="M 40.292969 238.070312 C 39.914062 236.9375 39.539062 235.050781 39.160156 234.296875 C 39.160156 233.542969 38.40625 231.65625 39.914062 232.03125 C 43.308594 232.789062 46.328125 235.429688 48.214844 238.445312 L 48.214844 239.199219 C 45.574219 241.839844 42.179688 243.726562 38.40625 243.726562 C 37.273438 243.726562 38.027344 241.839844 38.40625 241.464844 C 38.785156 240.710938 39.914062 238.824219 40.292969 238.070312 Z M 40.292969 238.070312 " fill-opacity="1" fill-rule="evenodd"/><path fill="#9adaf3" d="M 72.359375 249.007812 C 68.585938 250.515625 61.796875 250.515625 59.910156 250.515625 C 58.777344 250.140625 62.550781 247.875 63.679688 246.746094 C 64.8125 247.5 72.359375 249.007812 72.359375 249.007812 Z M 72.359375 249.007812 " fill-opacity="1" fill-rule="evenodd"/></g></g></g></g></g></g><g fill="#ffffff" fill-opacity="1"><g transform="translate(60.08203, 327.000006)"><g><path d="M 18.140625 0.734375 C 15.492188 0.734375 13.066406 0.425781 10.859375 -0.1875 C 8.660156 -0.8125 6.78125 -1.664062 5.21875 -2.75 C 3.664062 -3.84375 2.515625 -5.09375 1.765625 -6.5 L 7.171875 -12.34375 L 7.90625 -12.34375 C 9.195312 -10.601562 10.722656 -9.300781 12.484375 -8.4375 C 14.242188 -7.570312 16.15625 -7.140625 18.21875 -7.140625 C 20.113281 -7.140625 21.539062 -7.476562 22.5 -8.15625 C 23.457031 -8.832031 23.9375 -9.804688 23.9375 -11.078125 C 23.9375 -12.054688 23.59375 -12.878906 22.90625 -13.546875 C 22.21875 -14.222656 21.097656 -14.75 19.546875 -15.125 L 14.421875 -16.34375 C 10.578125 -17.257812 7.769531 -18.660156 6 -20.546875 C 4.226562 -22.429688 3.34375 -24.828125 3.34375 -27.734375 C 3.34375 -30.148438 3.957031 -32.25 5.1875 -34.03125 C 6.414062 -35.8125 8.148438 -37.171875 10.390625 -38.109375 C 12.628906 -39.046875 15.238281 -39.515625 18.21875 -39.515625 C 21.707031 -39.515625 24.597656 -39.007812 26.890625 -38 C 29.191406 -37 30.988281 -35.65625 32.28125 -33.96875 L 27.078125 -28.34375 L 26.375 -28.34375 C 25.289062 -29.5625 24.070312 -30.453125 22.71875 -31.015625 C 21.375 -31.578125 19.875 -31.859375 18.21875 -31.859375 C 14.375 -31.859375 12.453125 -30.660156 12.453125 -28.265625 C 12.453125 -27.253906 12.804688 -26.429688 13.515625 -25.796875 C 14.234375 -25.171875 15.492188 -24.660156 17.296875 -24.265625 L 22.078125 -23.203125 C 26.015625 -22.359375 28.890625 -21.003906 30.703125 -19.140625 C 32.523438 -17.273438 33.4375 -14.773438 33.4375 -11.640625 C 33.4375 -9.179688 32.828125 -7.015625 31.609375 -5.140625 C 30.390625 -3.265625 28.628906 -1.816406 26.328125 -0.796875 C 24.035156 0.222656 21.304688 0.734375 18.140625 0.734375 Z M 18.140625 0.734375 "/></g></g><g transform="translate(95.835934, 327.000006)"><g><path d="M 5.59375 15.71875 L 5.59375 -38.78125 L 15.328125 -38.78125 L 15.328125 -33.71875 L 16.0625 -33.578125 C 17.21875 -35.546875 18.753906 -37.023438 20.671875 -38.015625 C 22.597656 -39.015625 24.847656 -39.515625 27.421875 -39.515625 C 30.535156 -39.515625 33.257812 -38.773438 35.59375 -37.296875 C 37.925781 -35.828125 39.742188 -33.582031 41.046875 -30.5625 C 42.347656 -27.550781 43 -23.820312 43 -19.375 C 43 -14.945312 42.3125 -11.234375 40.9375 -8.234375 C 39.570312 -5.234375 37.671875 -2.988281 35.234375 -1.5 C 32.796875 -0.0078125 29.984375 0.734375 26.796875 0.734375 C 24.378906 0.734375 22.289062 0.332031 20.53125 -0.46875 C 18.769531 -1.28125 17.28125 -2.539062 16.0625 -4.25 L 15.328125 -4.109375 L 15.328125 15.71875 Z M 24.078125 -7.53125 C 26.984375 -7.53125 29.1875 -8.476562 30.6875 -10.375 C 32.1875 -12.269531 32.9375 -15.269531 32.9375 -19.375 C 32.9375 -23.476562 32.1875 -26.484375 30.6875 -28.390625 C 29.1875 -30.296875 26.984375 -31.25 24.078125 -31.25 C 21.359375 -31.25 19.203125 -30.265625 17.609375 -28.296875 C 16.015625 -26.328125 15.21875 -23.351562 15.21875 -19.375 C 15.21875 -15.414062 16.015625 -12.453125 17.609375 -10.484375 C 19.203125 -8.515625 21.359375 -7.53125 24.078125 -7.53125 Z M 24.078125 -7.53125 "/></g></g><g transform="translate(142.277339, 327.000006)"><g><path d="M 38.328125 -17.1875 L 13.390625 -17.1875 C 13.671875 -13.8125 14.628906 -11.359375 16.265625 -9.828125 C 17.910156 -8.296875 20.15625 -7.53125 23 -7.53125 C 25.21875 -7.53125 27.019531 -7.941406 28.40625 -8.765625 C 29.789062 -9.597656 30.90625 -10.859375 31.75 -12.546875 L 32.484375 -12.546875 L 38.953125 -8.40625 C 37.691406 -5.6875 35.78125 -3.484375 33.21875 -1.796875 C 30.664062 -0.109375 27.257812 0.734375 23 0.734375 C 18.988281 0.734375 15.523438 -0.0234375 12.609375 -1.546875 C 9.691406 -3.066406 7.441406 -5.332031 5.859375 -8.34375 C 4.273438 -11.363281 3.484375 -15.039062 3.484375 -19.375 C 3.484375 -23.78125 4.3125 -27.492188 5.96875 -30.515625 C 7.632812 -33.535156 9.882812 -35.789062 12.71875 -37.28125 C 15.5625 -38.769531 18.753906 -39.515625 22.296875 -39.515625 C 27.773438 -39.515625 31.972656 -38.0625 34.890625 -35.15625 C 37.804688 -32.25 39.265625 -27.984375 39.265625 -22.359375 C 39.265625 -20.316406 39.195312 -18.734375 39.0625 -17.609375 Z M 29.953125 -23.484375 C 29.859375 -26.441406 29.171875 -28.59375 27.890625 -29.9375 C 26.617188 -31.28125 24.753906 -31.953125 22.296875 -31.953125 C 17.367188 -31.953125 14.472656 -29.128906 13.609375 -23.484375 Z M 29.953125 -23.484375 "/></g></g><g transform="translate(184.429681, 327.000006)"><g><path d="M 22.609375 0.734375 C 18.859375 0.734375 15.539062 -0.0390625 12.65625 -1.59375 C 9.769531 -3.15625 7.519531 -5.445312 5.90625 -8.46875 C 4.289062 -11.5 3.484375 -15.132812 3.484375 -19.375 C 3.484375 -23.632812 4.289062 -27.273438 5.90625 -30.296875 C 7.519531 -33.328125 9.753906 -35.617188 12.609375 -37.171875 C 15.472656 -38.734375 18.75 -39.515625 22.4375 -39.515625 C 30.613281 -39.515625 35.847656 -36.550781 38.140625 -30.625 L 31.46875 -25.84375 L 30.734375 -25.84375 C 29.929688 -27.664062 28.890625 -29.019531 27.609375 -29.90625 C 26.335938 -30.800781 24.613281 -31.25 22.4375 -31.25 C 19.625 -31.25 17.429688 -30.273438 15.859375 -28.328125 C 14.285156 -26.390625 13.5 -23.40625 13.5 -19.375 C 13.5 -15.382812 14.296875 -12.410156 15.890625 -10.453125 C 17.484375 -8.503906 19.722656 -7.53125 22.609375 -7.53125 C 24.710938 -7.53125 26.5 -8.097656 27.96875 -9.234375 C 29.4375 -10.367188 30.484375 -12.003906 31.109375 -14.140625 L 31.859375 -14.203125 L 38.78125 -10.40625 C 37.789062 -7.125 35.96875 -4.445312 33.3125 -2.375 C 30.65625 -0.300781 27.085938 0.734375 22.609375 0.734375 Z M 22.609375 0.734375 "/></g></g><g transform="translate(224.402335, 327.000006)"><g><path d="M 10.4375 -43.421875 C 8.6875 -43.421875 7.257812 -43.953125 6.15625 -45.015625 C 5.050781 -46.085938 4.5 -47.46875 4.5 -49.15625 C 4.5 -50.8125 5.050781 -52.171875 6.15625 -53.234375 C 7.257812 -54.304688 8.6875 -54.84375 10.4375 -54.84375 C 11.613281 -54.84375 12.65625 -54.597656 13.5625 -54.109375 C 14.476562 -53.617188 15.1875 -52.941406 15.6875 -52.078125 C 16.195312 -51.222656 16.453125 -50.25 16.453125 -49.15625 C 16.453125 -48.050781 16.195312 -47.0625 15.6875 -46.1875 C 15.1875 -45.320312 14.476562 -44.644531 13.5625 -44.15625 C 12.65625 -43.664062 11.613281 -43.421875 10.4375 -43.421875 Z M 5.59375 0 L 5.59375 -38.78125 L 15.328125 -38.78125 L 15.328125 0 Z M 5.59375 0 "/></g></g><g transform="translate(245.285146, 327.000006)"><g><path d="M 38.328125 -17.1875 L 13.390625 -17.1875 C 13.671875 -13.8125 14.628906 -11.359375 16.265625 -9.828125 C 17.910156 -8.296875 20.15625 -7.53125 23 -7.53125 C 25.21875 -7.53125 27.019531 -7.941406 28.40625 -8.765625 C 29.789062 -9.597656 30.90625 -10.859375 31.75 -12.546875 L 32.484375 -12.546875 L 38.953125 -8.40625 C 37.691406 -5.6875 35.78125 -3.484375 33.21875 -1.796875 C 30.664062 -0.109375 27.257812 0.734375 23 0.734375 C 18.988281 0.734375 15.523438 -0.0234375 12.609375 -1.546875 C 9.691406 -3.066406 7.441406 -5.332031 5.859375 -8.34375 C 4.273438 -11.363281 3.484375 -15.039062 3.484375 -19.375 C 3.484375 -23.78125 4.3125 -27.492188 5.96875 -30.515625 C 7.632812 -33.535156 9.882812 -35.789062 12.71875 -37.28125 C 15.5625 -38.769531 18.753906 -39.515625 22.296875 -39.515625 C 27.773438 -39.515625 31.972656 -38.0625 34.890625 -35.15625 C 37.804688 -32.25 39.265625 -27.984375 39.265625 -22.359375 C 39.265625 -20.316406 39.195312 -18.734375 39.0625 -17.609375 Z M 29.953125 -23.484375 C 29.859375 -26.441406 29.171875 -28.59375 27.890625 -29.9375 C 26.617188 -31.28125 24.753906 -31.953125 22.296875 -31.953125 C 17.367188 -31.953125 14.472656 -29.128906 13.609375 -23.484375 Z M 29.953125 -23.484375 "/></g></g><g transform="translate(287.437489, 327.000006)"><g><path d="M 18.140625 0.734375 C 15.492188 0.734375 13.066406 0.425781 10.859375 -0.1875 C 8.660156 -0.8125 6.78125 -1.664062 5.21875 -2.75 C 3.664062 -3.84375 2.515625 -5.09375 1.765625 -6.5 L 7.171875 -12.34375 L 7.90625 -12.34375 C 9.195312 -10.601562 10.722656 -9.300781 12.484375 -8.4375 C 14.242188 -7.570312 16.15625 -7.140625 18.21875 -7.140625 C 20.113281 -7.140625 21.539062 -7.476562 22.5 -8.15625 C 23.457031 -8.832031 23.9375 -9.804688 23.9375 -11.078125 C 23.9375 -12.054688 23.59375 -12.878906 22.90625 -13.546875 C 22.21875 -14.222656 21.097656 -14.75 19.546875 -15.125 L 14.421875 -16.34375 C 10.578125 -17.257812 7.769531 -18.660156 6 -20.546875 C 4.226562 -22.429688 3.34375 -24.828125 3.34375 -27.734375 C 3.34375 -30.148438 3.957031 -32.25 5.1875 -34.03125 C 6.414062 -35.8125 8.148438 -37.171875 10.390625 -38.109375 C 12.628906 -39.046875 15.238281 -39.515625 18.21875 -39.515625 C 21.707031 -39.515625 24.597656 -39.007812 26.890625 -38 C 29.191406 -37 30.988281 -35.65625 32.28125 -33.96875 L 27.078125 -28.34375 L 26.375 -28.34375 C 25.289062 -29.5625 24.070312 -30.453125 22.71875 -31.015625 C 21.375 -31.578125 19.875 -31.859375 18.21875 -31.859375 C 14.375 -31.859375 12.453125 -30.660156 12.453125 -28.265625 C 12.453125 -27.253906 12.804688 -26.429688 13.515625 -25.796875 C 14.234375 -25.171875 15.492188 -24.660156 17.296875 -24.265625 L 22.078125 -23.203125 C 26.015625 -22.359375 28.890625 -21.003906 30.703125 -19.140625 C 32.523438 -17.273438 33.4375 -14.773438 33.4375 -11.640625 C 33.4375 -9.179688 32.828125 -7.015625 31.609375 -5.140625 C 30.390625 -3.265625 28.628906 -1.816406 26.328125 -0.796875 C 24.035156 0.222656 21.304688 0.734375 18.140625 0.734375 Z M 18.140625 0.734375 "/></g></g><g transform="translate(323.191393, 327.000006)"><g><path d="M 9.921875 0.3125 C 8.671875 0.3125 7.570312 0.0625 6.625 -0.4375 C 5.675781 -0.945312 4.945312 -1.644531 4.4375 -2.53125 C 3.9375 -3.425781 3.6875 -4.4375 3.6875 -5.5625 C 3.6875 -6.6875 3.9375 -7.691406 4.4375 -8.578125 C 4.945312 -9.472656 5.675781 -10.175781 6.625 -10.6875 C 7.570312 -11.207031 8.671875 -11.46875 9.921875 -11.46875 C 11.179688 -11.46875 12.285156 -11.210938 13.234375 -10.703125 C 14.179688 -10.203125 14.90625 -9.503906 15.40625 -8.609375 C 15.914062 -7.722656 16.171875 -6.71875 16.171875 -5.59375 C 16.171875 -3.882812 15.601562 -2.472656 14.46875 -1.359375 C 13.332031 -0.242188 11.816406 0.3125 9.921875 0.3125 Z M 9.921875 0.3125 "/></g></g><g transform="translate(343.054674, 327.000006)"><g><path d="M 18.140625 0.734375 C 15.492188 0.734375 13.066406 0.425781 10.859375 -0.1875 C 8.660156 -0.8125 6.78125 -1.664062 5.21875 -2.75 C 3.664062 -3.84375 2.515625 -5.09375 1.765625 -6.5 L 7.171875 -12.34375 L 7.90625 -12.34375 C 9.195312 -10.601562 10.722656 -9.300781 12.484375 -8.4375 C 14.242188 -7.570312 16.15625 -7.140625 18.21875 -7.140625 C 20.113281 -7.140625 21.539062 -7.476562 22.5 -8.15625 C 23.457031 -8.832031 23.9375 -9.804688 23.9375 -11.078125 C 23.9375 -12.054688 23.59375 -12.878906 22.90625 -13.546875 C 22.21875 -14.222656 21.097656 -14.75 19.546875 -15.125 L 14.421875 -16.34375 C 10.578125 -17.257812 7.769531 -18.660156 6 -20.546875 C 4.226562 -22.429688 3.34375 -24.828125 3.34375 -27.734375 C 3.34375 -30.148438 3.957031 -32.25 5.1875 -34.03125 C 6.414062 -35.8125 8.148438 -37.171875 10.390625 -38.109375 C 12.628906 -39.046875 15.238281 -39.515625 18.21875 -39.515625 C 21.707031 -39.515625 24.597656 -39.007812 26.890625 -38 C 29.191406 -37 30.988281 -35.65625 32.28125 -33.96875 L 27.078125 -28.34375 L 26.375 -28.34375 C 25.289062 -29.5625 24.070312 -30.453125 22.71875 -31.015625 C 21.375 -31.578125 19.875 -31.859375 18.21875 -31.859375 C 14.375 -31.859375 12.453125 -30.660156 12.453125 -28.265625 C 12.453125 -27.253906 12.804688 -26.429688 13.515625 -25.796875 C 14.234375 -25.171875 15.492188 -24.660156 17.296875 -24.265625 L 22.078125 -23.203125 C 26.015625 -22.359375 28.890625 -21.003906 30.703125 -19.140625 C 32.523438 -17.273438 33.4375 -14.773438 33.4375 -11.640625 C 33.4375 -9.179688 32.828125 -7.015625 31.609375 -5.140625 C 30.390625 -3.265625 28.628906 -1.816406 26.328125 -0.796875 C 24.035156 0.222656 21.304688 0.734375 18.140625 0.734375 Z M 18.140625 0.734375 "/></g></g><g transform="translate(378.808578, 327.000006)"><g><path d="M 5.59375 0 L 5.59375 -54.359375 L 15.328125 -54.359375 L 15.328125 -33.71875 L 16.0625 -33.578125 C 17.351562 -35.472656 18.9375 -36.9375 20.8125 -37.96875 C 22.6875 -39 24.945312 -39.515625 27.59375 -39.515625 C 36.15625 -39.515625 40.4375 -34.664062 40.4375 -24.96875 L 40.4375 0 L 30.6875 0 L 30.6875 -23.734375 C 30.6875 -26.378906 30.160156 -28.300781 29.109375 -29.5 C 28.054688 -30.695312 26.414062 -31.296875 24.1875 -31.296875 C 21.46875 -31.296875 19.3125 -30.382812 17.71875 -28.5625 C 16.125 -26.75 15.328125 -23.921875 15.328125 -20.078125 L 15.328125 0 Z M 5.59375 0 "/></g></g><g transform="translate(424.230452, 327.000006)"><g><path d="M 10.4375 -43.421875 C 8.6875 -43.421875 7.257812 -43.953125 6.15625 -45.015625 C 5.050781 -46.085938 4.5 -47.46875 4.5 -49.15625 C 4.5 -50.8125 5.050781 -52.171875 6.15625 -53.234375 C 7.257812 -54.304688 8.6875 -54.84375 10.4375 -54.84375 C 11.613281 -54.84375 12.65625 -54.597656 13.5625 -54.109375 C 14.476562 -53.617188 15.1875 -52.941406 15.6875 -52.078125 C 16.195312 -51.222656 16.453125 -50.25 16.453125 -49.15625 C 16.453125 -48.050781 16.195312 -47.0625 15.6875 -46.1875 C 15.1875 -45.320312 14.476562 -44.644531 13.5625 -44.15625 C 12.65625 -43.664062 11.613281 -43.421875 10.4375 -43.421875 Z M 5.59375 0 L 5.59375 -38.78125 L 15.328125 -38.78125 L 15.328125 0 Z M 5.59375 0 "/></g></g><g transform="translate(445.113263, 327.000006)"><g><path d="M 6.78125 0 L 6.78125 -31.078125 L 1.296875 -31.078125 L 1.296875 -38.8125 L 6.78125 -38.8125 C 6.382812 -40.457031 6.1875 -41.992188 6.1875 -43.421875 C 6.1875 -45.878906 6.75 -47.976562 7.875 -49.71875 C 9 -51.46875 10.613281 -52.800781 12.71875 -53.71875 C 14.832031 -54.632812 17.34375 -55.09375 20.25 -55.09375 C 24.539062 -55.09375 27.738281 -54.351562 29.84375 -52.875 L 27.5625 -45.703125 L 26.828125 -45.5625 C 25.367188 -46.59375 23.503906 -47.109375 21.234375 -47.109375 C 19.472656 -47.109375 18.15625 -46.679688 17.28125 -45.828125 C 16.40625 -44.972656 15.96875 -43.804688 15.96875 -42.328125 C 15.96875 -41.691406 16.003906 -41.109375 16.078125 -40.578125 C 16.160156 -40.054688 16.3125 -39.46875 16.53125 -38.8125 L 27.59375 -38.8125 L 27.59375 -31.078125 L 16.53125 -31.078125 L 16.53125 0 Z M 6.78125 0 "/></g></g></g><g fill="#ffffff" fill-opacity="1"><g transform="translate(474.117172, 327.000006)"><g><path d="M 26.75 -9.25 L 29.28125 -2.046875 C 28.226562 -1.171875 26.90625 -0.488281 25.3125 0 C 23.71875 0.488281 21.914062 0.734375 19.90625 0.734375 C 15.707031 0.734375 12.515625 -0.40625 10.328125 -2.6875 C 8.148438 -4.976562 7.0625 -8.300781 7.0625 -12.65625 L 7.0625 -31.078125 L 1.15625 -31.078125 L 1.15625 -38.8125 L 7.0625 -38.8125 L 7.0625 -46.375 L 16.8125 -47.953125 L 16.8125 -38.8125 L 27.8125 -38.8125 L 27.8125 -31.078125 L 16.8125 -31.078125 L 16.8125 -13.359375 C 16.8125 -11.441406 17.207031 -10.039062 18 -9.15625 C 18.800781 -8.28125 19.960938 -7.84375 21.484375 -7.84375 C 23.210938 -7.84375 24.722656 -8.3125 26.015625 -9.25 Z M 26.75 -9.25 "/></g></g><g transform="translate(504.246077, 327.000006)"><g><path d="M 18.140625 0.734375 C 15.492188 0.734375 13.066406 0.425781 10.859375 -0.1875 C 8.660156 -0.8125 6.78125 -1.664062 5.21875 -2.75 C 3.664062 -3.84375 2.515625 -5.09375 1.765625 -6.5 L 7.171875 -12.34375 L 7.90625 -12.34375 C 9.195312 -10.601562 10.722656 -9.300781 12.484375 -8.4375 C 14.242188 -7.570312 16.15625 -7.140625 18.21875 -7.140625 C 20.113281 -7.140625 21.539062 -7.476562 22.5 -8.15625 C 23.457031 -8.832031 23.9375 -9.804688 23.9375 -11.078125 C 23.9375 -12.054688 23.59375 -12.878906 22.90625 -13.546875 C 22.21875 -14.222656 21.097656 -14.75 19.546875 -15.125 L 14.421875 -16.34375 C 10.578125 -17.257812 7.769531 -18.660156 6 -20.546875 C 4.226562 -22.429688 3.34375 -24.828125 3.34375 -27.734375 C 3.34375 -30.148438 3.957031 -32.25 5.1875 -34.03125 C 6.414062 -35.8125 8.148438 -37.171875 10.390625 -38.109375 C 12.628906 -39.046875 15.238281 -39.515625 18.21875 -39.515625 C 21.707031 -39.515625 24.597656 -39.007812 26.890625 -38 C 29.191406 -37 30.988281 -35.65625 32.28125 -33.96875 L 27.078125 -28.34375 L 26.375 -28.34375 C 25.289062 -29.5625 24.070312 -30.453125 22.71875 -31.015625 C 21.375 -31.578125 19.875 -31.859375 18.21875 -31.859375 C 14.375 -31.859375 12.453125 -30.660156 12.453125 -28.265625 C 12.453125 -27.253906 12.804688 -26.429688 13.515625 -25.796875 C 14.234375 -25.171875 15.492188 -24.660156 17.296875 -24.265625 L 22.078125 -23.203125 C 26.015625 -22.359375 28.890625 -21.003906 30.703125 -19.140625 C 32.523438 -17.273438 33.4375 -14.773438 33.4375 -11.640625 C 33.4375 -9.179688 32.828125 -7.015625 31.609375 -5.140625 C 30.390625 -3.265625 28.628906 -1.816406 26.328125 -0.796875 C 24.035156 0.222656 21.304688 0.734375 18.140625 0.734375 Z M 18.140625 0.734375 "/></g></g></g></svg>